<?xml version="1.0" encoding="utf-8"?>
<!DOCTYPE svg PUBLIC "-//W3C//DTD SVG 1.0//EN" "http://www.w3.org/TR/2001/REC-SVG-20010904/DTD/svg10.dtd">
<svg version="1.0" xmlns="http://www.w3.org/2000/svg" width="278px" height="155px" viewBox="0 0 278 155" preserveAspectRatio="xMidYMid meet">
 <g fill="#000000">
  <path d="M53 112.5 c0 -3.3 0.2 -3.5 3.5 -3.5 3.3 0 3.5 0.2 3.5 3.5 0 3.3 -0.2 3.5 -3.5 3.5 -3.3 0 -3.5 -0.2 -3.5 -3.5z"/>
  <path d="M41 104.5 c0 -3.3 0.2 -3.5 3.5 -3.5 3.3 0 3.5 0.2 3.5 3.5 0 3.3 -0.2 3.5 -3.5 3.5 -3.3 0 -3.5 -0.2 -3.5 -3.5z"/>
  <path d="M137 98.5 c0 -3.3 0.2 -3.5 3.5 -3.5 3.3 0 3.5 0.2 3.5 3.5 0 3.3 -0.2 3.5 -3.5 3.5 -3.3 0 -3.5 -0.2 -3.5 -3.5z"/>
  <path d="M173.3 94.3 c-0.7 -0.2 -1.3 -2 -1.3 -3.9 0 -3.1 0.3 -3.4 2.9 -3.4 4.9 0 6.1 0.9 6.1 4.6 0 3.2 -0.2 3.4 -3.2 3.3 -1.8 0 -3.9 -0.3 -4.5 -0.6z"/>
  <path d="M78 90.5 c0 -3.3 0.2 -3.5 3.5 -3.5 3.3 0 3.5 0.2 3.5 3.5 0 3.3 -0.2 3.5 -3.5 3.5 -3.3 0 -3.5 -0.2 -3.5 -3.5z"/>
  <path d="M178 77.5 c0 -3.3 0.2 -3.5 3.5 -3.5 3.3 0 3.5 0.2 3.5 3.5 0 3.3 -0.2 3.5 -3.5 3.5 -3.3 0 -3.5 -0.2 -3.5 -3.5z"/>
  <path d="M78.3 79 c-1.8 -0.7 -2.3 -1.7 -2.3 -4.5 0 -3.2 0.3 -3.5 2.8 -3.5 1.5 0 4 0.6 5.5 1.3 2.1 0.9 2.7 1.9 2.7 4.5 0 3 -0.2 3.2 -3.2 3.1 -1.8 0 -4.3 -0.4 -5.5 -0.9z"/>
  <path d="M115 74.5 c0 -3.3 0.2 -3.5 3.5 -3.5 3.3 0 3.5 0.2 3.5 3.5 0 3.3 -0.2 3.5 -3.5 3.5 -3.3 0 -3.5 -0.2 -3.5 -3.5z"/>
  <path d="M136 66.5 c0 -3.3 0.2 -3.5 3.5 -3.5 3.3 0 3.5 0.2 3.5 3.5 0 3.3 -0.2 3.5 -3.5 3.5 -3.3 0 -3.5 -0.2 -3.5 -3.5z"/>
  <path d="M55 60.5 c0 -3.3 0.2 -3.5 3.5 -3.5 3.3 0 3.5 0.2 3.5 3.5 0 3.3 -0.2 3.5 -3.5 3.5 -3.3 0 -3.5 -0.2 -3.5 -3.5z"/>
 </g>
 <g fill="#080808">
  <path d="M13.4 145.8 c-3.2 -2.2 -5.7 -4.9 -7.2 -7.8 l-2.2 -4.5 0.2 -58.7 0.3 -58.6 3.1 -3.9 c1.6 -2.1 5 -4.8 7.4 -6 l4.4 -2.3 118.1 0 c80.1 0 119.2 0.4 121.8 1.1 2.1 0.6 5.6 2.6 7.7 4.5 7.3 6.6 7.1 5 6.8 68.9 l-0.3 57 -2.2 3.6 c-1.3 2 -4.2 4.9 -6.5 6.5 l-4.1 2.9 -121.2 0.3 -121.2 0.2 -4.9 -3.2z m38 -34.5 c4 -2.9 4.6 -6.4 4.6 -25.4 l0 -17.9 -3.5 0 -3.5 0 0 16.8 c0 9.2 -0.5 18.4 -1.1 20.5 -0.9 3.2 -1.4 3.7 -3.9 3.7 -2.2 0 -3 0.5 -3 1.8 0 1 0.3 2.2 0.8 2.6 1.1 1.2 6.9 -0.1 9.6 -2.1z m34.2 -13.9 c1.9 -0.9 4.2 -3 5 -4.5 2.2 -4.3 0 -7.7 -7.3 -11.4 -5.3 -2.8 -5.8 -3.3 -6.1 -6.8 l-0.3 -3.7 6 0 c7.5 0 8.6 -1.4 2.3 -3 -4.1 -0.9 -5.5 -0.9 -9 0.5 -9.1 3.7 -8.8 9.9 0.8 14.6 7.3 3.6 8 4.4 8 8.5 l0 3.6 -8 -0.4 c-6.7 -0.3 -8 -0.1 -7.8 1.1 0.6 3.1 11 4 16.4 1.5z m23 0.2 c1.8 -1.4 1.8 -1.6 0.3 -3.1 -1.1 -1.1 -2.4 -1.5 -3.8 -1 -2.3 0.7 -2.7 2.5 -0.9 4.3 1.5 1.5 2 1.5 4.4 -0.2z m25.4 -0.1 c3.8 -2 3.8 -3.5 0.1 -3.5 -1.6 0 -3.3 -0.6 -3.9 -1.2 -1.5 -2 -2.5 -9.4 -1.7 -13.8 0.9 -5.4 2.7 -7 8 -7 6 0 7.5 2.3 7.4 11 0 3.6 -0.4 7.4 -0.8 8.4 -0.9 2.4 2.3 6.6 5.1 6.6 1.5 0 1.8 -0.9 1.9 -6.2 0.1 -3.5 0.3 -10.6 0.4 -15.8 0.1 -5.2 0 -12.1 -0.3 -15.2 l-0.5 -5.8 -3.3 0 -3.4 0 0 7 0 7 -4.1 0 c-2.2 0 -4.8 -0.4 -5.8 -0.9 -2.7 -1.5 -7.9 2.2 -10.1 7.2 -3.5 7.5 -2.1 15.7 3.6 20.6 4.1 3.6 3.7 3.5 7.4 1.6z m51.9 0.4 c5.2 -1.8 3.5 -2.9 -4.4 -2.9 -9.1 0 -11.5 -1.5 -11.5 -7.2 l0 -3.8 11 0 c6.1 0 11 -0.3 11 -0.7 0 -2.4 -2.4 -9.1 -3.8 -10.7 -1 -1 -3.6 -2.7 -5.9 -3.8 -5.5 -2.4 -10.5 -1.2 -15.1 3.5 -7.8 8 -5.7 20.3 4.2 24.8 4.7 2.1 9.9 2.4 14.5 0.8z m39.8 -14.4 c2.9 -7.7 5.3 -14.4 5.3 -14.8 0 -0.5 -1.2 -0.7 -2.7 -0.5 -2.6 0.3 -3 1 -5.7 10.6 l-3 10.2 -3.3 0 c-3 0 -3.3 -0.3 -4.3 -4.2 -3.9 -14.8 -4.6 -16.3 -7.8 -16.6 l-3 -0.3 5.6 15.1 5.7 15.1 4 -0.3 3.9 -0.3 5.3 -14z m-170.7 -25.5 c1.3 -0.8 1.3 -1.1 -0.1 -2.6 -1.9 -1.8 -5.9 -1.1 -5.9 1.1 0 2.2 3.5 3.1 6 1.5z"/>
  <path d="M170 78 c0 -5.6 1.4 -7 7.4 -7 6.2 0 7.9 1.4 7.4 6.2 l-0.3 3.3 -7.2 0.3 -7.3 0.3 0 -3.1z"/>
 </g>
 <g fill="#101010">
  <path d="M38.7 116.3 c-1.6 -1.5 -0.6 -3.3 1.8 -3.3 1.8 0 2.5 0.5 2.5 2 0 2 -2.8 2.8 -4.3 1.3z"/>
  <path d="M46 115.1 c0 -1.6 0.8 -2.2 3.9 -2.7 3.6 -0.6 3.9 -0.9 4.5 -4.5 0.5 -3.1 1.1 -3.9 2.7 -3.9 1.9 0 2.1 0.4 1.5 3.3 -0.8 4.1 -5.2 8.5 -9.3 9.3 -2.9 0.6 -3.3 0.4 -3.3 -1.5z"/>
  <path d="M45 103.3 c0 -3.4 1.2 -6.3 2.6 -6.3 1 0 1.4 1.3 1.4 4 0 3.3 -0.3 4 -2 4 -1.2 0 -2 -0.7 -2 -1.7z"/>
  <path d="M175.8 102.3 c-3 -0.7 -2.1 -3.3 1.1 -3.3 1.5 0 4.9 -0.3 7.5 -0.6 3.6 -0.5 4.6 -1.1 4.6 -2.5 0 -1.1 -0.7 -1.9 -1.5 -1.9 -2.4 0 -1.8 -2.7 0.8 -3.4 1.2 -0.3 2.7 -0.6 3.2 -0.6 0.8 0 1.1 4.3 0.6 9.2 -0.2 1.6 -12.8 4 -16.3 3.1z"/>
  <path d="M82 100.1 c0 -2 2.5 -3.1 7.3 -3.1 3.7 0 3.4 1.4 -0.7 3.4 -4.5 2.1 -6.6 2 -6.6 -0.3z"/>
  <path d="M101.2 100.8 c-1.9 -1.9 -1.4 -2.8 1.8 -2.8 2.3 0 3 0.4 3 2 0 2.3 -2.9 2.7 -4.8 0.8z"/>
  <path d="M108.2 99.3 c0.2 -2 0.9 -2.9 2.6 -3.1 2.8 -0.4 3.1 3.3 0.3 4.8 -2.9 1.5 -3.3 1.3 -2.9 -1.7z"/>
  <path d="M142.3 99.7 c-1.7 -2.3 -2 -2.3 -3.1 -0.9 -0.9 1.5 -1.1 1.3 -1.1 -1 -0.1 -2.5 0.2 -2.8 3.4 -2.8 2.6 0 3.5 0.4 3.5 1.6 0 1.4 0.7 1.5 4 1 3.1 -0.5 4 -0.3 4 0.8 0 0.8 0.6 1.7 1.3 1.9 0.6 0.3 -0.4 0.6 -2.3 0.6 -1.9 0.1 -4.5 0.4 -5.6 0.7 -1.5 0.4 -2.7 -0.2 -4.1 -1.9z"/>
  <path d="M210.3 101.1 c-0.5 -0.3 -1.2 -1.4 -1.6 -2.3 -0.5 -1.3 -0.1 -1.8 1.2 -1.8 2.9 0 5.1 1.1 5.1 2.5 0 1.4 -3.3 2.6 -4.7 1.6z"/>
  <path d="M219.8 101.2 c-2.2 -0.4 -2.4 -3.2 -0.3 -3.2 0.8 0 1.5 -0.9 1.5 -2 0 -1.5 0.7 -2 2.4 -2 2.3 0 2.4 0.2 1.5 2.9 -1.3 3.6 -2.8 4.9 -5.1 4.3z"/>
  <path d="M165.2 98.4 c-2.7 -1.9 -4.8 -5.8 -5.7 -10.7 -0.6 -3.3 -0.5 -3.7 1.3 -3.7 1.6 0 2.2 0.9 2.7 3.8 0.4 2.4 1.5 4.5 3.1 5.6 1.3 1.1 2.4 2.9 2.4 4.2 0 2.8 -0.7 3 -3.8 0.8z"/>
  <path d="M99 95 c0 -2.4 3.7 -6 6.2 -6 1.1 0 1.8 0.7 1.8 2 0 1.1 -0.6 2 -1.4 2 -0.8 0 -1.8 0.9 -2.1 2 -0.8 2.6 -4.5 2.7 -4.5 0z"/>
  <path d="M120 95.1 c-1.6 -3.1 -1.2 -5.1 1 -5.1 1.6 0 2 0.7 2 3.5 0 3.9 -1.4 4.6 -3 1.6z"/>
  <path d="M207.6 95.2 c-0.2 -0.4 -1.4 -3.1 -2.5 -6 l-2.1 -5.2 2.5 0 c2 0 2.5 0.5 2.5 2.5 0 1.4 0.5 2.5 1 2.5 0.6 0 1 1.6 1 3.5 0 3.2 -1.2 4.6 -2.4 2.7z"/>
  <path d="M171 90.5 c0 -1.9 0.2 -3.5 0.4 -3.5 0.6 0 6.6 6 6.6 6.6 0 0.2 -1.6 0.4 -3.5 0.4 -3.3 0 -3.5 -0.2 -3.5 -3.5z"/>
  <path d="M66 91 c0 -2.3 0.4 -2.4 3.1 -1 2.7 1.5 2.4 3 -0.6 3 -1.8 0 -2.5 -0.5 -2.5 -2z"/>
  <path d="M75.8 92.3 c1.2 -0.2 3 -0.2 4 0 0.9 0.3 -0.1 0.5 -2.3 0.4 -2.2 0 -3 -0.2 -1.7 -0.4z"/>
  <path d="M224 89.6 c0 -3.2 0.3 -3.6 2.5 -3.6 2.4 0 2.5 0.1 1.2 3.2 -1.9 4.6 -3.7 4.8 -3.7 0.4z"/>
  <path d="M150 73.5 c0 -11.7 -0.4 -18.5 -1 -18.5 -1.6 0 -1.1 -3 0.5 -3.1 0.8 -0.1 2 -0.2 2.7 -0.3 0.9 -0.1 1.3 4.4 1.5 16.9 0.4 18.9 -0.1 23.5 -2.2 23.5 -1.3 0 -1.5 -3 -1.5 -18.5z"/>
  <path d="M140.3 87.5 c0.6 -1.9 1.6 -3.5 2.4 -3.5 0.8 0 1.3 1.3 1.3 3.5 0 3 -0.3 3.5 -2.4 3.5 -2.3 0 -2.4 -0.2 -1.3 -3.5z"/>
  <path d="M76.5 87.5 l-3 -1.4 3.8 -0.1 c2.6 0 3.7 0.4 3.7 1.5 0 1.8 -0.5 1.8 -4.5 0z"/>
  <path d="M128.2 82.1 c0.6 -7.9 2.1 -10.1 6.7 -10.1 3.8 0 4.2 2.5 0.6 3.4 -2.8 0.7 -4.5 5.3 -3.7 10.4 0.4 2.8 0.1 3.2 -1.8 3.2 -2.2 0 -2.2 -0.3 -1.8 -6.9z"/>
  <path d="M88.4 84.6 c-0.3 -0.8 -1.6 -1.7 -3 -2 -1.3 -0.4 -2.4 -1.1 -2.4 -1.6 0 -0.6 -0.9 -1 -1.9 -1 -3.8 0 -5.1 -1.1 -5.1 -4.6 0 -3.1 0.3 -3.4 2.9 -3.4 1.6 0 3.8 0.3 4.8 0.7 1.4 0.6 1.1 0.9 -1.7 1.4 l-3.5 0.6 5.7 2.6 c5.8 2.7 9.8 5.8 9.8 7.7 0 1.5 -5 1.2 -5.6 -0.4z"/>
  <path d="M227 81.6 c0 -3.2 0.3 -3.6 2.5 -3.6 2.4 0 2.5 0.1 1.2 3.2 -1.9 4.6 -3.7 4.8 -3.7 0.4z"/>
  <path d="M68.3 82.8 c-0.6 -0.7 -1.3 -2.1 -1.6 -3 -0.5 -1.4 -0.1 -1.8 1.8 -1.8 2.1 0 2.5 0.5 2.5 3 0 3.2 -1.1 3.9 -2.7 1.8z"/>
  <path d="M210.2 79.5 c-0.7 -2.5 -1.2 -5.6 -1.2 -7 0 -1.4 -0.4 -2.5 -1 -2.5 -0.5 0 -1 -1.2 -1 -2.6 0 -1.8 0.5 -2.5 1.6 -2.2 1.1 0.2 2.5 3 4 8.2 2.9 9.6 2.9 10.6 0.6 10.6 -1.3 0 -2.1 -1.3 -3 -4.5z"/>
  <path d="M202.6 82.1 c-0.3 -0.4 -1 -2 -1.5 -3.5 -1 -2.4 -0.8 -2.6 1.4 -2.6 2.2 0 2.5 0.4 2.5 3.5 0 3.3 -1.2 4.6 -2.4 2.6z"/>
  <path d="M159 80.8 c0 -3.1 2.2 -8.7 4 -10.3 2 -1.8 2 -1.7 2 0.9 0 4.7 -2.3 10.6 -4.2 10.6 -1 0 -1.8 -0.6 -1.8 -1.2z"/>
  <path d="M191 78.5 c0 -1.9 -0.4 -3.5 -1 -3.5 -0.5 0 -1 -1.6 -1 -3.7 0 -3.5 0.1 -3.5 1.9 -1.9 1.6 1.5 4.1 8.4 4.1 11.5 0 0.6 -0.9 1.1 -2 1.1 -1.6 0 -2 -0.7 -2 -3.5z"/>
  <path d="M118 78.8 c0 -3 1.3 -5.8 2.6 -5.8 0.9 0 1.4 1.2 1.4 3.5 0 2.8 -0.4 3.5 -2 3.5 -1.1 0 -2 -0.6 -2 -1.2z"/>
  <path d="M170 76.5 c0 -3.3 0.2 -3.5 3.5 -3.5 l3.5 0 -2.2 2.3 -2.3 2.2 2.3 0.3 c3.5 0.5 2.6 2.2 -1.3 2.2 -3.3 0 -3.5 -0.2 -3.5 -3.5z"/>
  <path d="M88.7 75.3 c-1.3 -1.2 -0.7 -3.3 0.8 -3.3 1 0 1.5 -1 1.5 -3 0 -3.1 0.6 -3.6 2.8 -2.2 0.9 0.7 0.8 1.7 -0.5 5 -1.7 4 -3.1 5 -4.6 3.5z"/>
  <path d="M220 74.8 c0 -3 1.3 -5.8 2.6 -5.8 0.9 0 1.4 1.2 1.4 3.5 0 2.8 -0.4 3.5 -2 3.5 -1.1 0 -2 -0.6 -2 -1.2z"/>
  <path d="M66 73.5 c0 -2.9 3.1 -6.3 7.1 -7.9 5.2 -2.1 6.9 -2 6.9 0.4 0 1.6 -0.7 2 -3.5 2 -2.5 0 -3.5 0.4 -3.5 1.5 0 0.9 -0.7 1.8 -1.5 2.1 -0.8 0.4 -1.5 1.2 -1.5 2 0 0.8 -0.9 1.4 -2 1.4 -1.1 0 -2 -0.7 -2 -1.5z"/>
  <path d="M198 70.4 c-2.4 -5.6 -2.4 -5.4 0 -5.4 1.1 0 2 0.7 2 1.5 0 0.8 0.5 1.5 1 1.5 0.6 0 1 1.6 1 3.5 0 4.8 -1.7 4.4 -4 -1.1z"/>
  <path d="M232 68.6 c0 -3.2 0.3 -3.6 2.5 -3.6 2.4 0 2.5 0.1 1.2 3.2 -1.9 4.6 -3.7 4.8 -3.7 0.4z"/>
  <path d="M45.8 69.3 c-0.9 -3.5 0.2 -4.3 5.5 -4.1 4.4 0.1 4.6 0.2 1.5 0.5 -3.3 0.4 -3.8 0.8 -3.8 2.9 0 2.8 -2.5 3.3 -3.2 0.7z"/>
  <path d="M166 68 c0 -1.2 3.3 -3 5.4 -3 0.9 0 1.6 0.9 1.6 2 0 1.6 -0.7 2 -3.5 2 -1.9 0 -3.5 -0.4 -3.5 -1z"/>
  <path d="M82 66 c0 -2.1 1 -2.4 4.8 -1.4 3.6 1 2.7 3.4 -1.3 3.4 -2.8 0 -3.5 -0.4 -3.5 -2z"/>
  <path d="M125 67 c0 -1.4 3.5 -3 6.5 -3 3 0 6.5 1.6 6.5 3 0 0.6 -2.9 1 -6.5 1 -3.6 0 -6.5 -0.4 -6.5 -1z"/>
  <path d="M178 66 c0 -2.1 1 -2.4 4.8 -1.4 3.6 1 2.7 3.4 -1.3 3.4 -2.8 0 -3.5 -0.4 -3.5 -2z"/>
  <path d="M49 61.9 c-4.4 -1.8 -5.3 -4.9 -1.5 -4.9 1.4 0 2.5 0.5 2.5 1 0 0.6 1.4 1 3 1 2 0 3 0.5 3 1.5 0 0.8 -0.4 1.5 -0.9 1.5 -0.5 0 -1.5 0.2 -2.3 0.4 -0.7 0.3 -2.4 0 -3.8 -0.5z"/>
  <path d="M48 52.6 c0 -1.7 3.7 -2.7 6.8 -1.9 4.1 1 2.6 3.3 -2.3 3.3 -3.2 0 -4.5 -0.4 -4.5 -1.4z"/>
 </g>
 <g fill="#191919">
  <path d="M55 106.5 c0 -2.8 0.4 -3.5 2 -3.5 2.1 0 2.4 1 1.4 4.8 -1 3.6 -3.4 2.7 -3.4 -1.3z"/>
  <path d="M45.3 102.5 c0.6 -1.9 1.6 -3.5 2.4 -3.5 0.8 0 1.3 1.3 1.3 3.5 0 3 -0.3 3.5 -2.4 3.5 -2.3 0 -2.4 -0.2 -1.3 -3.5z"/>
  <path d="M69 101.1 c-2.7 -0.7 -4.1 -4.1 -1.7 -4.1 4.4 0 7.7 1.4 7.7 3.1 0 2 -1.5 2.2 -6 1z"/>
  <path d="M170.8 101.3 c-3.3 -0.8 -2 -3.3 1.7 -3.3 2.8 0 3.5 0.4 3.5 2 0 2 -1.4 2.3 -5.2 1.3z"/>
  <path d="M135 98.5 c0 -2.2 0.4 -2.5 3.5 -2.5 2 0 3.5 0.5 3.5 1.2 0 0.6 -0.3 0.9 -0.6 0.6 -0.3 -0.4 -1.4 0.2 -2.5 1.3 -2.6 2.6 -3.9 2.4 -3.9 -0.6z"/>
  <path d="M186 99 c0 -1.6 0.7 -2 3 -2 3.2 0 4.2 2.3 1.4 3.4 -2.9 1.1 -4.4 0.6 -4.4 -1.4z"/>
  <path d="M209.6 100.1 c-0.3 -0.4 -1 -2 -1.5 -3.5 -1 -2.4 -0.8 -2.6 1.4 -2.6 2.2 0 2.5 0.4 2.5 3.5 0 3.3 -1.2 4.6 -2.4 2.6z"/>
  <path d="M88 97.5 c0 -1.4 0.7 -2.8 1.5 -3.1 0.8 -0.4 1.5 -1.5 1.5 -2.5 0 -1.2 0.7 -1.9 2 -1.9 2.4 0 2.6 2 0.5 5.9 -1.2 2.4 -3.3 4.1 -5.1 4.1 -0.2 0 -0.4 -1.1 -0.4 -2.5z"/>
  <path d="M121.9 97.4 c-1.7 -2 -3.9 -7.7 -3.9 -10 0 -0.8 0.9 -1.4 2 -1.4 1.5 0 2 0.7 2 2.9 0 1.6 0.5 3.1 1.1 3.3 0.6 0.2 0.9 1.9 0.7 3.7 -0.3 3.2 -0.4 3.3 -1.9 1.5z"/>
  <path d="M163.6 96.4 l-2.9 -2.9 2.8 -0.3 c3.4 -0.4 3.7 -0.1 3.3 3.3 l-0.3 2.8 -2.9 -2.9z"/>
  <path d="M222 94.6 c0 -3.2 0.3 -3.6 2.5 -3.6 2.4 0 2.5 0.1 1.2 3.2 -1.9 4.6 -3.7 4.8 -3.7 0.4z"/>
  <path d="M70 93 c0 -2.1 1 -2.4 4.8 -1.4 3.6 1 2.7 3.4 -1.3 3.4 -2.8 0 -3.5 -0.4 -3.5 -2z"/>
  <path d="M183 93.6 c0 -1.3 2.8 -2.6 5.8 -2.6 0.6 0 1.2 0.9 1.2 2 0 1.6 -0.7 2 -3.5 2 -2.3 0 -3.5 -0.5 -3.5 -1.4z"/>
  <path d="M130 90.5 c0 -3.9 0.9 -4.4 2.8 -1.5 0.7 1.1 1.9 2 2.7 2 0.8 0 1.5 0.7 1.5 1.5 0 1 -1.1 1.5 -3.5 1.5 -3.3 0 -3.5 -0.2 -3.5 -3.5z"/>
  <path d="M105 91 c0 -2.2 2 -2.6 5.1 -1 3 1.6 2.3 3 -1.6 3 -2.8 0 -3.5 -0.4 -3.5 -2z"/>
  <path d="M213 86.5 c0 -3.7 1.3 -4.6 2.8 -1.9 0.7 1.3 1.2 0.5 2.2 -3.5 1.4 -6 4 -7.1 4 -1.6 0 1.9 -0.4 3.5 -1 3.5 -0.5 0 -1 1.6 -1 3.5 0 3.3 -0.2 3.5 -3.5 3.5 -3.3 0 -3.5 -0.2 -3.5 -3.5z"/>
  <path d="M225 86.6 c0 -3.2 0.3 -3.6 2.5 -3.6 2.4 0 2.5 0.1 1.2 3.2 -1.9 4.6 -3.7 4.8 -3.7 0.4z"/>
  <path d="M74.3 86.5 c-3.4 -1.5 -7.3 -4.9 -7.3 -6.5 0 -1.5 5 -1.2 5.6 0.4 0.3 0.8 1.6 1.7 3 2 1.7 0.5 2.4 1.3 2.4 3.1 0 1.4 -0.1 2.5 -0.2 2.5 -0.2 -0.1 -1.7 -0.7 -3.5 -1.5z"/>
  <path d="M204.6 87.1 c-0.3 -0.4 -1 -2 -1.5 -3.5 -1 -2.4 -0.8 -2.6 1.4 -2.6 2.2 0 2.5 0.4 2.5 3.5 0 3.3 -1.2 4.6 -2.4 2.6z"/>
  <path d="M191 81.5 c0 -4 0.4 -5.5 1.4 -5.5 1.6 0 2.6 3 2.6 7.8 0 2.5 -0.4 3.2 -2 3.2 -1.8 0 -2 -0.7 -2 -5.5z"/>
  <path d="M139.9 78.5 l-1.6 -3.5 2.8 0 c2.6 0 2.9 0.3 2.9 3.5 0 4.5 -2 4.5 -4.1 0z"/>
  <path d="M179.8 78.3 c2.7 -0.5 2.4 -2.4 -0.6 -3.8 -3.7 -1.6 -2.7 -3.7 1.6 -3.3 3.5 0.3 3.7 0.5 4 4.1 l0.3 3.7 -3.8 -0.1 c-2.4 -0.1 -3 -0.3 -1.5 -0.6z"/>
  <path d="M119 75.5 c0 -2.1 2.5 -6.8 4.4 -8.4 1.4 -1.2 1.6 -0.9 1.6 2.3 0 2 -0.4 3.6 -1 3.6 -0.5 0 -1 0.9 -1 2 0 1.3 -0.7 2 -2 2 -1.1 0 -2 -0.7 -2 -1.5z"/>
  <path d="M230 73.6 c0 -3.2 0.3 -3.6 2.5 -3.6 2.4 0 2.5 0.1 1.2 3.2 -1.9 4.6 -3.7 4.8 -3.7 0.4z"/>
  <path d="M221 71.8 c0 -3 1.3 -5.8 2.6 -5.8 0.9 0 1.4 1.2 1.4 3.5 0 2.8 -0.4 3.5 -2 3.5 -1.1 0 -2 -0.6 -2 -1.2z"/>
  <path d="M136.2 70.8 c-1.2 -1.2 -1.7 -5.8 -0.6 -5.8 0.3 0 1.4 0.5 2.5 1 1.6 0.9 1.9 0.7 1.9 -1 0 -1.1 0.4 -2 0.8 -2 1.8 0 3.2 2.6 3.2 5.7 0 3.1 -0.2 3.3 -3.3 3.3 -1.8 0 -3.8 -0.5 -4.5 -1.2z"/>
  <path d="M87.5 69 c-1.1 -0.5 -4.6 -0.9 -7.7 -0.9 -4.3 -0.1 -5.8 -0.5 -5.8 -1.5 0 -1.9 5.2 -3 10.8 -2.1 6.3 0.9 9.2 2.2 9.2 4 0 1.7 -3.2 1.9 -6.5 0.5z"/>
  <path d="M165.4 68.2 c1.5 -1.7 7.7 -4.2 10.5 -4.2 0.6 0 1.1 0.9 1.1 2 0 1.6 -0.7 2 -3 2 -1.6 0 -3 0.5 -3 1 0 0.6 -1.6 1 -3.7 1 -3.4 0 -3.5 -0.1 -1.9 -1.8z"/>
  <path d="M196.7 67 c-0.4 -1.5 0 -2 1.4 -2 1.2 0 1.9 0.7 1.9 2 0 1.1 -0.6 2 -1.4 2 -0.7 0 -1.6 -0.9 -1.9 -2z"/>
  <path d="M55 59 c0 -2.3 0.4 -3 2 -3 2.3 0 2.7 2.9 0.8 4.8 -1.9 1.9 -2.8 1.4 -2.8 -1.8z"/>
  <path d="M45 56.1 c0 -2 2.5 -5.1 4.1 -5.1 1 0 1.2 3 0.3 5.4 -0.9 2.3 -4.4 2 -4.4 -0.3z"/>
 </g>
 <g fill="#212121">
  <path d="M39.3 116.3 c-2.6 -1 -1.3 -3.3 1.7 -3.3 2.3 0 3 0.4 3 2 0 2 -1.9 2.5 -4.7 1.3z"/>
  <path d="M125.8 100.9 c-2.9 -1.6 -2.1 -2.9 1.7 -2.9 2.8 0 3.5 0.4 3.5 2 0 2.2 -2.4 2.6 -5.2 0.9z"/>
  <path d="M100 99.1 c-1.6 -3.1 -1.2 -5.1 1 -5.1 1.6 0 2 0.7 2 3.5 0 3.9 -1.4 4.6 -3 1.6z"/>
  <path d="M136 98 c0 -2.8 0.3 -3 3.5 -3 3.1 0 3.5 0.3 3.5 2.7 0 2.6 -0.1 2.6 -1.5 0.7 -0.8 -1 -1.5 -1.4 -1.5 -0.9 0 0.6 -0.9 1.6 -2 2.3 -1.8 1.1 -2 1 -2 -1.8z"/>
  <path d="M165.1 97.5 c-4.9 -4.5 -5.9 -7.5 -2.5 -7.5 2 0 2.4 0.5 2.4 3 0 2.5 0.4 3 2.4 3 3.7 0 5.6 1 5.6 3.1 0 3 -3.6 2.3 -7.9 -1.6z"/>
  <path d="M220 98.6 c0 -2.1 0.5 -2.6 2.5 -2.6 2.1 0 2.3 0.3 1.6 2.3 -1.2 3.3 -4.1 3.5 -4.1 0.3z"/>
  <path d="M101 92 c0 -1.2 3.3 -3 5.4 -3 0.9 0 1.6 0.9 1.6 2 0 1.6 -0.7 2 -3.5 2 -1.9 0 -3.5 -0.4 -3.5 -1z"/>
  <path d="M170 89.5 c0 -3.4 0.1 -3.5 3.8 -3.4 2.3 0.1 2.8 0.3 1.5 0.6 -2.9 0.6 -2.9 1.7 -0.1 4.3 l2.2 2 -3.7 0 c-3.6 0 -3.7 -0.1 -3.7 -3.5z"/>
  <path d="M206.6 92.1 c-0.3 -0.4 -1 -2 -1.5 -3.5 -1 -2.4 -0.8 -2.6 1.4 -2.6 2.2 0 2.5 0.4 2.5 3.5 0 3.3 -1.2 4.6 -2.4 2.6z"/>
  <path d="M82 91 c0 -0.5 -1.3 -1.6 -3 -2.5 -4 -2.1 -3.8 -3.5 0.5 -3.5 3.3 0 3.5 0.2 3.5 3.5 0 1.9 -0.2 3.5 -0.5 3.5 -0.3 0 -0.5 -0.4 -0.5 -1z"/>
  <path d="M139 90 c1.1 -1.1 2 -2.7 2 -3.5 0 -0.8 0.7 -1.5 1.5 -1.5 1 0 1.5 1.1 1.5 3.5 0 3.3 -0.2 3.5 -3.5 3.5 l-3.5 0 2 -2z"/>
  <path d="M91 86.5 c0 -3.9 1.4 -4.6 3 -1.6 1.6 3.1 1.2 5.1 -1 5.1 -1.6 0 -2 -0.7 -2 -3.5z"/>
  <path d="M212 84.5 c0 -1.9 -0.4 -3.5 -1 -3.5 -0.5 0 -1 -1.6 -1 -3.5 0 -1.9 -0.4 -3.5 -1 -3.5 -0.5 0 -1 -1.6 -1 -3.5 0 -2.2 0.5 -3.5 1.3 -3.5 0.9 0 2.4 3.8 4.2 10.2 2.7 9.6 2.9 10.1 3.7 7 1.1 -4.2 1.8 -4.1 1.8 0.3 0 3.3 -0.2 3.5 -3.5 3.5 -3.3 0 -3.5 -0.2 -3.5 -3.5z"/>
  <path d="M191 82 c0 -6.1 2.5 -7.1 3.6 -1.5 0.7 4.2 0 6.5 -2.1 6.5 -1.1 0 -1.5 -1.2 -1.5 -5z"/>
  <path d="M128 80.5 c0 -2.8 0.4 -3.5 2 -3.5 2.1 0 2.4 1 1.4 4.8 -1 3.6 -3.4 2.7 -3.4 -1.3z"/>
  <path d="M159 81.8 c0 -3 1.3 -5.8 2.6 -5.8 0.9 0 1.4 1.2 1.4 3.5 0 2.8 -0.4 3.5 -2 3.5 -1.1 0 -2 -0.6 -2 -1.2z"/>
  <path d="M228 78.6 c0 -3.2 0.3 -3.6 2.5 -3.6 2.4 0 2.5 0.1 1.2 3.2 -1.9 4.6 -3.7 4.8 -3.7 0.4z"/>
  <path d="M80 79 c0 -1.1 -0.7 -2 -1.5 -2 -1 0 -1.5 -1.1 -1.5 -3.5 0 -3.4 0.1 -3.5 4 -3.5 3.3 0 4 0.3 4 2 0 1.6 -0.7 2 -3 2 -4.2 0 -3.7 1.4 1 3.3 4.9 1.9 5.2 3.7 0.5 3.7 -2.8 0 -3.5 -0.4 -3.5 -2z"/>
  <path d="M118 79.8 c0 -3 1.3 -5.8 2.6 -5.8 0.9 0 1.4 1.2 1.4 3.5 0 2.8 -0.4 3.5 -2 3.5 -1.1 0 -2 -0.6 -2 -1.2z"/>
  <path d="M138.8 76.8 c-1.6 -1.6 -2.8 -3.1 -2.8 -3.4 0 -0.2 1.6 -0.4 3.5 -0.4 3.3 0 3.5 0.2 3.5 3.5 0 4.2 -0.6 4.2 -4.2 0.3z"/>
  <path d="M201.6 79.1 c-0.3 -0.4 -1 -2 -1.5 -3.5 -1 -2.4 -0.8 -2.6 1.4 -2.6 2.2 0 2.5 0.4 2.5 3.5 0 3.3 -1.2 4.6 -2.4 2.6z"/>
  <path d="M219 78.8 c0 -3 1.3 -5.8 2.6 -5.8 0.9 0 1.4 1.2 1.4 3.5 0 2.8 -0.4 3.5 -2 3.5 -1.1 0 -2 -0.6 -2 -1.2z"/>
  <path d="M90 70.5 c0 -2.8 0.4 -3.5 2 -3.5 2.2 0 2.6 2 1 5.1 -1.6 3 -3 2.3 -3 -1.6z"/>
  <path d="M198 70.1 c-1.6 -3.1 -1.2 -5.1 1 -5.1 1.6 0 2 0.7 2 3.5 0 3.9 -1.4 4.6 -3 1.6z"/>
  <path d="M122 69 c0 -1.4 4.1 -3.9 7.8 -4.6 2.8 -0.6 3.2 -0.4 3.2 1.5 0 1.6 -0.6 2.1 -2.5 2.1 -1.4 0 -2.5 0.5 -2.5 1 0 0.6 -1.3 1 -3 1 -1.6 0 -3 -0.4 -3 -1z"/>
  <path d="M222.2 67.8 c0.5 -3.4 3.8 -3.7 3.8 -0.4 0 2 -0.5 2.6 -2.1 2.6 -1.5 0 -2 -0.5 -1.7 -2.2z"/>
  <path d="M75 66.6 c0 -1.3 2.8 -2.6 5.8 -2.6 0.6 0 1.2 0.9 1.2 2 0 1.6 -0.7 2 -3.5 2 -2.3 0 -3.5 -0.5 -3.5 -1.4z"/>
  <path d="M171 66.6 c0 -0.8 1.4 -1.7 3.1 -2.1 4.2 -0.9 9.9 0.2 9.9 2 0 1.2 -1.5 1.5 -6.5 1.5 -4.9 0 -6.5 -0.3 -6.5 -1.4z"/>
  <path d="M46.7 60.2 c-2.3 -2.6 -2.2 -5.2 0.3 -5.2 1.6 0 2 0.7 2 3.5 0 4 -0.1 4.1 -2.3 1.7z"/>
  <path d="M53 60 c0 -1.6 0.7 -2 3 -2 2.8 0 3 0.2 2 2 -0.6 1.1 -2 2 -3 2 -1.3 0 -2 -0.7 -2 -2z"/>
  <path d="M53 53 c0 -2.3 2.9 -2.7 4.8 -0.8 1.9 1.9 1.4 2.8 -1.8 2.8 -2.3 0 -3 -0.4 -3 -2z"/>
 </g>
 <g fill="#292929">
  <path d="M182 100 c0 -1.6 0.7 -2 3 -2 1.7 0 3 -0.4 3 -1 0 -0.5 0.9 -1 2 -1 3.8 0 2.4 3.6 -1.9 4.8 -5.3 1.6 -6.1 1.5 -6.1 -0.8z"/>
  <path d="M109 93 c0 -3.2 0.9 -3.7 2.8 -1.8 1.9 1.9 1.5 4.8 -0.8 4.8 -1.6 0 -2 -0.7 -2 -3z"/>
  <path d="M132 92.5 c0 -1.8 -0.5 -2.5 -2 -2.5 -1.6 0 -2 -0.7 -2 -3.5 0 -4.9 2.4 -4.5 3.9 0.6 1.2 3.9 1.4 4.1 4.7 3.7 3 -0.4 3.4 -0.1 3.4 1.9 0 2 -0.5 2.3 -4 2.3 -3.6 0 -4 -0.2 -4 -2.5z"/>
  <path d="M172 91.5 l0 -3.5 2 2 c1.1 1.1 2.7 2 3.5 2 0.8 0 1.5 0.7 1.5 1.5 0 1 -1.1 1.5 -3.5 1.5 -3.3 0 -3.5 -0.2 -3.5 -3.5z"/>
  <path d="M66 92 c0 -2.1 1 -2.4 4.8 -1.4 3.6 1 2.7 3.4 -1.3 3.4 -2.8 0 -3.5 -0.4 -3.5 -2z"/>
  <path d="M79.8 92.3 c2.7 -0.5 2.8 -1.9 0.2 -3.5 -2.9 -1.9 -2.4 -2.8 1.5 -2.8 3.3 0 3.5 0.2 3.5 3.5 0 3.4 -0.1 3.5 -3.7 3.4 -2.4 -0.1 -2.9 -0.3 -1.5 -0.6z"/>
  <path d="M159.6 87.8 c-1 -3.8 -0.7 -4.8 1.4 -4.8 1.6 0 2 0.7 2 3.5 0 4 -2.4 4.9 -3.4 1.3z"/>
  <path d="M191 84.5 c0 -3 2.5 -3.4 3.3 -0.6 0.5 2.2 0 3.1 -2 3.1 -0.7 0 -1.3 -1.1 -1.3 -2.5z"/>
  <path d="M214 83.8 c0 -3.6 0.4 -3.5 1.4 0.5 0.4 1.6 0.2 2.7 -0.4 2.7 -0.5 0 -1 -1.4 -1 -3.2z"/>
  <path d="M217 85.8 c0 -3 1.3 -5.8 2.6 -5.8 0.9 0 1.4 1.2 1.4 3.5 0 2.8 -0.4 3.5 -2 3.5 -1.1 0 -2 -0.6 -2 -1.2z"/>
  <path d="M203.6 84.1 c-0.3 -0.4 -1 -2 -1.5 -3.5 -1 -2.4 -0.8 -2.6 1.4 -2.6 2.2 0 2.5 0.4 2.5 3.5 0 3.3 -1.2 4.6 -2.4 2.6z"/>
  <path d="M67 80.1 c-1.6 -3.1 -1.2 -5.1 1 -5.1 1.6 0 2 0.7 2 3.5 0 3.9 -1.4 4.6 -3 1.6z"/>
  <path d="M190 76 c0 -1.1 -0.4 -2 -1 -2 -0.5 0 -1 -0.7 -1 -1.5 0 -0.8 -0.7 -1.5 -1.5 -1.5 -0.9 0 -1.5 -0.9 -1.5 -2.5 0 -1.4 0.3 -2.5 0.8 -2.5 1.6 0 5.3 3.3 6.7 6 2.1 4 1.9 6 -0.5 6 -1.3 0 -2 -0.7 -2 -2z"/>
  <path d="M86.3 74.8 c-4.5 -1.5 -4.3 -3.8 0.2 -3.8 3.1 0 3.5 0.3 3.5 2.5 0 1.4 -0.1 2.5 -0.2 2.4 -0.2 -0.1 -1.8 -0.6 -3.5 -1.1z"/>
  <path d="M174 72.3 c0 -2 0.5 -2.3 3.5 -2.3 2.8 0 3.5 0.4 3.5 1.9 0 1.4 -0.9 2 -3.5 2.3 -3.1 0.4 -3.5 0.1 -3.5 -1.9z"/>
  <path d="M231 70.6 c0 -3.2 0.3 -3.6 2.5 -3.6 2.4 0 2.5 0.1 1.2 3.2 -1.9 4.6 -3.7 4.8 -3.7 0.4z"/>
  <path d="M137 69.5 c0 -1 -1.1 -1.5 -3.5 -1.5 -2.9 0 -3.5 -0.4 -3.5 -2.1 0 -1.9 0.4 -2.1 3.2 -1.5 1.8 0.3 4.2 1.5 5.4 2.7 l2.1 2 -0.4 -2.5 c-0.4 -2.1 -0.1 -2.6 1.6 -2.6 1.7 0 2.1 0.6 2.1 3.5 0 3.3 -0.2 3.5 -3.5 3.5 -2.4 0 -3.5 -0.5 -3.5 -1.5z"/>
  <path d="M70 68 c0 -1.2 3.3 -3 5.4 -3 0.9 0 1.6 0.9 1.6 2 0 1.6 -0.7 2 -3.5 2 -1.9 0 -3.5 -0.4 -3.5 -1z"/>
  <path d="M80 66 c0 -2.1 1 -2.4 4.8 -1.4 3.6 1 2.7 3.4 -1.3 3.4 -2.8 0 -3.5 -0.4 -3.5 -2z"/>
  <path d="M55 54 c0 -2.8 0.2 -3 2 -2 1.1 0.6 2 2 2 3 0 1.3 -0.7 2 -2 2 -1.6 0 -2 -0.7 -2 -3z"/>
 </g>
 <g fill="#313131">
  <path d="M45 115 c0 -1.6 0.7 -2 3.5 -2 4 0 4.9 2.4 1.3 3.4 -3.8 1 -4.8 0.7 -4.8 -1.4z"/>
  <path d="M55 105.5 c0 -2.8 0.4 -3.5 2 -3.5 2.1 0 2.4 1 1.4 4.8 -1 3.6 -3.4 2.7 -3.4 -1.3z"/>
  <path d="M70.8 101.3 c-3.3 -0.8 -2 -3.3 1.7 -3.3 2.8 0 3.5 0.4 3.5 2 0 2 -1.4 2.3 -5.2 1.3z"/>
  <path d="M81 100 c0 -1.6 0.7 -2 3.5 -2 4 0 4.9 2.4 1.3 3.4 -3.8 1 -4.8 0.7 -4.8 -1.4z"/>
  <path d="M101.9 100.9 c-2.2 -1.2 -3.2 -5.5 -1.9 -7.9 1.7 -3.2 2.8 -2.3 3.5 3.1 0.8 5.7 0.6 6.1 -1.6 4.8z"/>
  <path d="M126.5 101 c-1.2 -0.4 -2.7 -1.5 -3.4 -2.4 -1.2 -1.4 -0.9 -1.6 2.3 -1.6 3.2 0 3.6 0.3 3.6 2.5 0 1.4 -0.1 2.5 -0.2 2.4 -0.2 0 -1.2 -0.4 -2.3 -0.9z"/>
  <path d="M131 100 c0 -1.6 0.7 -2 3.5 -2 3.9 0 4.6 1.4 1.6 3 -3.1 1.6 -5.1 1.2 -5.1 -1z"/>
  <path d="M208.6 97.1 c-0.3 -0.4 -1 -2 -1.5 -3.5 -1 -2.4 -0.8 -2.6 1.4 -2.6 2.2 0 2.5 0.4 2.5 3.5 0 3.3 -1.2 4.6 -2.4 2.6z"/>
  <path d="M176 94 c0 -1.7 0.7 -2 4.5 -2 3.8 0 4.5 0.3 4.5 2 0 1.7 -0.7 2 -4.5 2 -3.8 0 -4.5 -0.3 -4.5 -2z"/>
  <path d="M223 91.6 c0 -3.2 0.3 -3.6 2.5 -3.6 2.4 0 2.5 0.1 1.2 3.2 -1.9 4.6 -3.7 4.8 -3.7 0.4z"/>
  <path d="M79 93 c0 -0.5 0.7 -1 1.5 -1 2 0 1.9 -2 -0.2 -3.6 -1.6 -1.2 -1.4 -1.3 2 -1.4 3.6 0 3.7 0.1 3.7 3.5 0 3.3 -0.2 3.5 -3.5 3.5 -1.9 0 -3.5 -0.4 -3.5 -1z"/>
  <path d="M104 91.6 c0 -2.1 1.5 -2.8 4.5 -2 3.9 1 3.2 3.4 -1 3.4 -2.4 0 -3.5 -0.5 -3.5 -1.4z"/>
  <path d="M129 89.5 c0 -4 1.4 -4.5 3.1 -1.2 0.7 1.2 1.9 2.7 2.8 3.4 1.3 1 1 1.2 -2.1 1.3 -3.7 0 -3.8 -0.1 -3.8 -3.5z"/>
  <path d="M118.6 89.8 c-1 -3.8 -0.7 -4.8 1.4 -4.8 1.6 0 2 0.7 2 3.5 0 4 -2.4 4.9 -3.4 1.3z"/>
  <path d="M226 83.6 c0 -3.2 0.3 -3.6 2.5 -3.6 2.4 0 2.5 0.1 1.2 3.2 -1.9 4.6 -3.7 4.8 -3.7 0.4z"/>
  <path d="M159.5 79.8 c0.8 -4.9 2.1 -7.8 3.5 -7.8 1.1 0 1.3 2.8 0.4 8.3 -0.5 2.8 -1.1 3.7 -2.6 3.7 -1.8 0 -1.9 -0.5 -1.3 -4.2z"/>
  <path d="M179 79.5 c0 -0.8 0.7 -1.5 1.5 -1.5 0.8 0 1.5 -0.7 1.5 -1.5 0 -1.7 -3.8 -3.5 -5.7 -2.8 -0.8 0.3 -1.3 -0.3 -1.3 -1.6 0 -1.7 0.6 -2.1 3.5 -2.1 2.8 0 3.5 0.4 3.5 2 0 1.3 0.7 2 2 2 1.6 0 2 0.7 2 3.5 0 3.3 -0.2 3.5 -3.5 3.5 -2.4 0 -3.5 -0.5 -3.5 -1.5z"/>
  <path d="M200.6 76.1 c-0.3 -0.4 -1 -2 -1.5 -3.5 -1 -2.4 -0.8 -2.6 1.4 -2.6 2.2 0 2.5 0.4 2.5 3.5 0 3.3 -1.2 4.6 -2.4 2.6z"/>
  <path d="M220 75.8 c0 -3 1.3 -5.8 2.6 -5.8 0.9 0 1.4 1.2 1.4 3.5 0 2.8 -0.4 3.5 -2 3.5 -1.1 0 -2 -0.6 -2 -1.2z"/>
  <path d="M66 74.4 c0 -2.1 1.8 -5.4 3 -5.4 0.6 0 1 1.6 1 3.5 0 2.8 -0.4 3.5 -2 3.5 -1.1 0 -2 -0.7 -2 -1.6z"/>
  <path d="M87.9 75 c-1 -0.6 -3.3 -1.1 -5.3 -1.2 -2.7 -0.2 -3.6 -0.8 -3.6 -2 0 -1.4 0.8 -1.8 3.5 -1.8 1.9 0 3.5 0.5 3.5 1 0 0.6 1.6 1 3.5 1 3.3 0 3.5 0.2 2.5 2 -1.2 2.2 -1.8 2.4 -4.1 1z"/>
  <path d="M119.7 73 c0.3 -1.1 1.7 -3.2 3.2 -4.7 l2.6 -2.8 0.3 3 c0.2 1.6 -0.1 3.1 -0.7 3.3 -0.6 0.2 -1.1 1 -1.1 1.8 0 0.8 -1 1.4 -2.4 1.4 -1.9 0 -2.3 -0.4 -1.9 -2z"/>
  <path d="M55 67 c0 -1.3 0.7 -2 2 -2 1.3 0 2 0.7 2 2 0 1.3 -0.7 2 -2 2 -1.3 0 -2 -0.7 -2 -2z"/>
  <path d="M176.8 68.3 c-5.3 -0.4 -6.6 -2.6 -2.2 -3.7 4.4 -1.1 13.4 1.2 13.4 3.4 0 1 -1.7 1 -11.2 0.3z"/>
  <path d="M76 66.6 c0 -1.3 2.8 -2.6 5.8 -2.6 0.6 0 1.2 0.9 1.2 2 0 1.6 -0.7 2 -3.5 2 -2.3 0 -3.5 -0.5 -3.5 -1.4z"/>
 </g>
 <g fill="#3a3a3a">
  <path d="M39.8 116.3 c-3.3 -0.8 -2 -3.3 1.7 -3.3 2.8 0 3.5 0.4 3.5 2 0 2 -1.4 2.3 -5.2 1.3z"/>
  <path d="M50 113.5 c0 -1.6 0.6 -2.5 1.5 -2.5 0.8 0 1.5 -0.7 1.5 -1.5 0 -0.8 0.5 -1.5 1 -1.5 0.6 0 1 -1.6 1 -3.5 0 -2.9 0.4 -3.5 2.1 -3.5 1.9 0 2 0.4 1.4 4.3 -0.9 5.2 -1.9 7.2 -4.7 9.1 -3.1 2.2 -3.8 2 -3.8 -0.9z"/>
  <path d="M41 107.5 c0 -0.8 0.7 -1.5 1.6 -1.5 0.9 0 2.1 -1.3 2.7 -3 1.5 -3.9 3.7 -3.9 3.7 -0.1 0 4.9 -0.9 6.1 -4.6 6.1 -2.4 0 -3.4 -0.5 -3.4 -1.5z"/>
  <path d="M101.6 100.4 c-2.3 -2.2 -2 -3.4 0.9 -3.4 2 0 2.5 0.5 2.5 2.5 0 2.9 -1.2 3.2 -3.4 0.9z"/>
  <path d="M106 100 c0 -1.6 0.7 -2 3.7 -2 3.5 0 3.6 0 1.8 2 -1 1.1 -2.6 2 -3.7 2 -1.1 0 -1.8 -0.7 -1.8 -2z"/>
  <path d="M171.8 101.3 c-3.3 -0.8 -2 -3.3 1.7 -3.3 2.8 0 3.5 0.4 3.5 2 0 2 -1.4 2.3 -5.2 1.3z"/>
  <path d="M221 96.6 c0 -3.2 0.3 -3.6 2.5 -3.6 2.4 0 2.5 0.1 1.2 3.2 -1.9 4.6 -3.7 4.8 -3.7 0.4z"/>
  <path d="M120 94.1 c-1.6 -3.1 -1.2 -5.1 1 -5.1 1.6 0 2 0.7 2 3.5 0 3.9 -1.4 4.6 -3 1.6z"/>
  <path d="M175 94 c0 -2.1 1 -2.4 4.8 -1.4 3.6 1 2.7 3.4 -1.3 3.4 -2.8 0 -3.5 -0.4 -3.5 -2z"/>
  <path d="M69 93 c0 -2.1 1 -2.4 4.8 -1.4 3.6 1 2.7 3.4 -1.3 3.4 -2.8 0 -3.5 -0.4 -3.5 -2z"/>
  <path d="M184 93.7 c0 -0.8 1.6 -1.8 3.5 -2.4 3.3 -1.1 3.5 -1 3.5 1.3 0 2.1 -0.5 2.4 -3.5 2.4 -2.2 0 -3.5 -0.5 -3.5 -1.3z"/>
  <path d="M104.8 93.3 c-3.2 -0.5 -3.7 -2.8 -0.9 -3.6 3.1 -0.8 7.1 0.4 8.2 2.4 0.8 1.7 0.6 1.9 -1.8 1.8 -1.5 -0.1 -4 -0.4 -5.5 -0.6z"/>
  <path d="M136 93.4 c0 -0.6 5.9 -6.4 6.6 -6.4 0.2 0 0.4 1.6 0.4 3.5 0 3.3 -0.2 3.5 -3.5 3.5 -1.9 0 -3.5 -0.3 -3.5 -0.6z"/>
  <path d="M205.6 89.1 c-0.3 -0.4 -1 -2 -1.5 -3.5 -1 -2.4 -0.8 -2.6 1.4 -2.6 2.2 0 2.5 0.4 2.5 3.5 0 3.3 -1.2 4.6 -2.4 2.6z"/>
  <path d="M77.3 87.5 c-4.3 -1.8 -4.2 -3.5 0.2 -3.5 3.1 0 3.5 0.3 3.5 2.5 0 1.4 -0.1 2.5 -0.2 2.5 -0.2 -0.1 -1.8 -0.7 -3.5 -1.5z"/>
  <path d="M159.6 86.8 c-1 -3.8 -0.7 -4.8 1.4 -4.8 1.6 0 2 0.7 2 3.5 0 4 -2.4 4.9 -3.4 1.3z"/>
  <path d="M211 81.5 c0 -1.9 -0.4 -3.5 -1 -3.5 -0.5 0 -1 -1.6 -1 -3.5 0 -1.9 -0.4 -3.5 -1 -3.5 -0.5 0 -1 -1.3 -1 -3 0 -4.4 2.7 -3.9 3.9 0.8 0.6 2 1.7 6 2.6 8.7 1.9 6.5 1.9 7.5 -0.5 7.5 -1.6 0 -2 -0.7 -2 -3.5z"/>
  <path d="M118 80.8 c0 -3 1.3 -5.8 2.6 -5.8 0.9 0 1.4 1.2 1.4 3.5 0 2.8 -0.4 3.5 -2 3.5 -1.1 0 -2 -0.6 -2 -1.2z"/>
  <path d="M178 80 c0 -1.5 0.7 -2 2.5 -2 1.8 0 2.3 -0.4 1.9 -1.5 -0.4 -0.9 0 -1.5 1 -1.5 1.2 0 1.6 1 1.6 3.5 0 3.3 -0.2 3.5 -3.5 3.5 -2.8 0 -3.5 -0.4 -3.5 -2z"/>
  <path d="M139.7 77 c-0.9 -1.1 -2.4 -2 -3.2 -2 -0.8 0 -1.5 -0.7 -1.5 -1.5 0 -1 1.1 -1.5 3.5 -1.5 3.3 0 3.5 0.2 3.5 3.5 0 1.9 -0.1 3.5 -0.3 3.5 -0.1 0 -1 -0.9 -2 -2z"/>
  <path d="M229 75.6 c0 -3.2 0.3 -3.6 2.5 -3.6 2.4 0 2.5 0.1 1.2 3.2 -1.9 4.6 -3.7 4.8 -3.7 0.4z"/>
  <path d="M171 74.5 c0 -3.3 0.2 -3.5 3.5 -3.5 1.9 0 3.5 0.3 3.5 0.6 0 0.6 -5.9 6.4 -6.6 6.4 -0.2 0 -0.4 -1.6 -0.4 -3.5z"/>
  <path d="M89.6 75.3 c-0.3 -0.3 -0.6 -1.9 -0.6 -3.5 0 -2.3 0.4 -2.8 2.4 -2.8 2.3 0 2.4 0.2 1.4 3 -1.1 3.2 -2.1 4.3 -3.2 3.3z"/>
  <path d="M122.2 69.1 c3 -4.9 12.3 -6.1 16.1 -2.2 l2.2 2.1 -6.4 -0.2 c-4.5 -0.2 -6.6 0.1 -6.8 1 -0.3 0.6 -1.8 1.2 -3.4 1.2 -2.6 0 -2.8 -0.2 -1.7 -1.9z"/>
  <path d="M69.4 68.1 c1 -1 2.6 -2.1 3.7 -2.4 1.5 -0.4 1.9 0 1.9 1.9 0 2.1 -0.5 2.4 -3.7 2.4 -3.5 0 -3.6 -0.1 -1.9 -1.9z"/>
  <path d="M77 66.6 c0 -1.7 3.7 -2.7 6.8 -1.9 4.1 1 2.6 3.3 -2.3 3.3 -3.2 0 -4.5 -0.4 -4.5 -1.4z"/>
  <path d="M173 66.6 c0 -1.7 3.7 -2.7 6.8 -1.9 4.1 1 2.6 3.3 -2.3 3.3 -3.2 0 -4.5 -0.4 -4.5 -1.4z"/>
 </g>
 <g fill="#424242">
  <path d="M54 109.5 c0 -2.8 0.4 -3.5 2 -3.5 2.3 0 2.6 2.6 0.6 5.3 -2 2.5 -2.6 2.1 -2.6 -1.8z"/>
  <path d="M67.3 100.3 c-2.6 -1 -1.3 -3.3 1.7 -3.3 2.3 0 3 0.4 3 2 0 2 -1.9 2.5 -4.7 1.3z"/>
  <path d="M142 99 c-0.6 -1.1 -1.5 -1.8 -2.1 -1.5 -0.5 0.4 -0.9 0.1 -0.9 -0.4 0 -0.6 1.6 -1.1 3.5 -1.1 3.1 0 3.5 0.3 3.5 2.5 0 3.1 -2.5 3.3 -4 0.5z"/>
  <path d="M209.3 99.3 c-0.3 -1 -0.8 -2.1 -1 -2.5 -0.2 -0.5 0.7 -0.8 2.1 -0.8 2.1 0 2.6 0.5 2.6 2.5 0 2.9 -2.7 3.5 -3.7 0.8z"/>
  <path d="M100 98.1 c-1.2 -2.3 -0.3 -5.1 1.6 -5.1 0.9 0 1.4 1.2 1.4 3.5 0 3.9 -1.4 4.6 -3 1.6z"/>
  <path d="M90.2 90 l0 -9.2 2.2 2.1 c1.6 1.6 2.1 3.4 2.1 7.1 0 3.7 -0.5 5.5 -2.1 7.1 l-2.2 2.1 0 -9.2z"/>
  <path d="M179 94.6 c0 -1.3 2.8 -2.6 5.8 -2.6 0.6 0 1.2 0.9 1.2 2 0 1.6 -0.7 2 -3.5 2 -2.3 0 -3.5 -0.5 -3.5 -1.4z"/>
  <path d="M134 93.3 c0 -1.2 0.9 -1.8 2.6 -2 1.5 0 3 -0.7 3.5 -1.5 0.6 -0.9 0.9 -0.2 0.9 2 0 3 -0.2 3.2 -3.5 3.2 -2.7 0 -3.5 -0.4 -3.5 -1.7z"/>
  <path d="M169 87.5 c0 -3.3 0.2 -3.5 3.5 -3.5 2.4 0 3.5 0.5 3.5 1.5 0 0.8 -0.7 1.5 -1.6 1.5 -1.1 0 -1.5 0.6 -1.1 2 0.4 1.6 0 2 -1.9 2 -2.1 0 -2.4 -0.5 -2.4 -3.5z"/>
  <path d="M159 83.8 c0 -3 1.3 -5.8 2.6 -5.8 0.9 0 1.4 1.2 1.4 3.5 0 2.8 -0.4 3.5 -2 3.5 -1.1 0 -2 -0.6 -2 -1.2z"/>
  <path d="M218 82.8 c0 -3 1.3 -5.8 2.6 -5.8 0.9 0 1.4 1.2 1.4 3.5 0 2.8 -0.4 3.5 -2 3.5 -1.1 0 -2 -0.6 -2 -1.2z"/>
  <path d="M82 79.5 c0 -2.4 0.1 -2.5 3.2 -1.2 4.6 1.9 4.8 3.7 0.4 3.7 -3.2 0 -3.6 -0.3 -3.6 -2.5z"/>
  <path d="M170 78.5 c0 -2.4 0.5 -3.5 1.5 -3.5 0.9 0 1.5 -0.9 1.5 -2.5 0 -2.2 0.4 -2.5 3.5 -2.5 2.7 0 3.5 0.4 3.5 1.8 0 1.1 -0.9 1.7 -2.6 1.9 -2.4 0.1 -4.3 1.7 -4.4 3.6 0 0.6 6.9 1 8.8 0.5 0.4 -0.1 0.6 -0.8 0.4 -1.5 -0.2 -0.7 0.2 -1.3 0.8 -1.3 0.5 0 1 1.6 1 3.5 l0 3.5 -7 0 -7 0 0 -3.5z"/>
  <path d="M202.6 81.1 c-0.3 -0.4 -1 -2 -1.5 -3.5 -1 -2.4 -0.8 -2.6 1.4 -2.6 2.2 0 2.5 0.4 2.5 3.5 0 3.3 -1.2 4.6 -2.4 2.6z"/>
  <path d="M76 73.5 c0 -3.3 0.2 -3.5 3.5 -3.5 2.4 0 3.5 0.5 3.5 1.5 0 0.8 -0.6 1.5 -1.4 1.5 -2.1 0 -3.1 2.1 -1.5 3.1 1 0.6 0.6 0.9 -1.3 0.9 -2.5 0 -2.8 -0.3 -2.8 -3.5z"/>
  <path d="M161 74.1 c0 -0.6 1.1 -2.3 2.5 -3.8 l2.4 -2.8 0.1 3.8 c0 3.3 -0.3 3.7 -2.5 3.7 -1.4 0 -2.5 -0.4 -2.5 -0.9z"/>
  <path d="M221 72.8 c0 -3 1.3 -5.8 2.6 -5.8 0.9 0 1.4 1.2 1.4 3.5 0 2.8 -0.4 3.5 -2 3.5 -1.1 0 -2 -0.6 -2 -1.2z"/>
  <path d="M186.7 72.3 c-0.4 -0.3 -0.7 -1.9 -0.7 -3.5 0 -2.8 0.1 -2.8 2.1 -1.4 1.1 0.8 2.7 2.4 3.5 3.5 1.4 2 1.4 2.1 -1.4 2.1 -1.6 0 -3.2 -0.3 -3.5 -0.7z"/>
  <path d="M232 68 c0 -2.3 0.4 -3 2 -3 2.2 0 2.5 1.2 1 4.1 -1.6 2.8 -3 2.3 -3 -1.1z"/>
  <path d="M137 67.8 c0 -2 0.1 -2.1 2 -0.3 2 1.8 2 1.8 1.4 -1.3 -0.6 -2.8 -0.4 -3.2 1.5 -3.2 1.7 0 2.1 0.6 2.1 3.5 0 3.3 -0.2 3.5 -3.5 3.5 -2.9 0 -3.5 -0.4 -3.5 -2.2z"/>
  <path d="M174 66.6 c0 -1.6 2.5 -2.4 5.3 -1.8 3.2 0.8 1.9 3.2 -1.8 3.2 -2.4 0 -3.5 -0.5 -3.5 -1.4z"/>
  <path d="M54 59.5 c0 -2 0.5 -2.5 2.5 -2.5 2.9 0 3.2 1.2 0.9 3.4 -2.2 2.3 -3.4 2 -3.4 -0.9z"/>
  <path d="M45.9 58.9 c-0.8 -1.6 -0.8 -2.8 0 -4.5 1.7 -3.8 3.1 -2.8 3.1 2.1 0 4.8 -1.2 5.8 -3.1 2.4z"/>
 </g>
 <g fill="#4a4a4a">
  <path d="M44 115.2 c0 -2 3.2 -3.2 8.6 -3.2 5 0 1.3 3.4 -5 4.5 -3.2 0.6 -3.6 0.5 -3.6 -1.3z"/>
  <path d="M55 85.9 c0 -19.5 0.1 -21 1.8 -20.7 1.5 0.3 1.7 2.1 2 17.8 0.3 19.3 -0.1 24 -2.3 24 -1.3 0 -1.5 -3.3 -1.5 -21.1z"/>
  <path d="M181 100 c0 -1.6 0.7 -2 3.5 -2 4 0 4.9 2.4 1.3 3.4 -3.8 1 -4.8 0.7 -4.8 -1.4z"/>
  <path d="M67.8 100.3 c-2.5 -0.6 -2.3 -4.3 0.2 -4.3 1.5 0 2 0.7 2 2.5 0 1.4 -0.1 2.4 -0.2 2.4 -0.2 -0.1 -1.1 -0.3 -2 -0.6z"/>
  <path d="M122.1 97.4 c-2.7 -3.5 -2.6 -4.4 0.4 -4.4 2.2 0 2.5 0.4 2.5 3.5 0 1.9 -0.2 3.5 -0.4 3.5 -0.3 0 -1.4 -1.2 -2.5 -2.6z"/>
  <path d="M99.8 97.3 c-0.6 -2.8 0.2 -5.3 1.8 -5.3 0.9 0 1.4 1.1 1.4 3.5 0 3.7 -2.4 5 -3.2 1.8z"/>
  <path d="M207.6 94.1 c-0.3 -0.4 -1 -2 -1.5 -3.5 -1 -2.4 -0.8 -2.6 1.4 -2.6 2.2 0 2.5 0.4 2.5 3.5 0 3.3 -1.2 4.6 -2.4 2.6z"/>
  <path d="M161.4 92.8 c-1.2 -1.9 -2.3 -9.2 -1.7 -11.5 0.3 -1.3 1.1 -2.3 1.9 -2.3 0.8 0 1.4 1 1.4 2.3 0 1.2 0.3 4.6 0.6 7.5 0.7 5 -0.4 6.9 -2.2 4z"/>
  <path d="M224 88.6 c0 -3.2 0.3 -3.6 2.5 -3.6 2.4 0 2.5 0.1 1.2 3.2 -1.9 4.6 -3.7 4.8 -3.7 0.4z"/>
  <path d="M118.6 88.8 c-1 -3.8 -0.7 -4.8 1.4 -4.8 1.6 0 2 0.7 2 3.5 0 4 -2.4 4.9 -3.4 1.3z"/>
  <path d="M213 87.5 c0 -3.8 1.3 -4.6 2.9 -1.7 1 1.6 1 1.6 1.1 0 0 -1 0.7 -1.8 1.5 -1.8 1 0 1.5 1.1 1.5 3.5 0 3.3 -0.2 3.5 -3.5 3.5 -3.3 0 -3.5 -0.2 -3.5 -3.5z"/>
  <path d="M86 81.5 c0 -3.1 1.1 -3.2 4.7 0 l2.8 2.4 -3.7 0.1 c-3.4 0 -3.8 -0.3 -3.8 -2.5z"/>
  <path d="M227 80.6 c0 -3.2 0.3 -3.6 2.5 -3.6 2.4 0 2.5 0.1 1.2 3.2 -1.9 4.6 -3.7 4.8 -3.7 0.4z"/>
  <path d="M128 79.5 c0 -3 0.3 -3.5 2.4 -3.5 2.3 0 2.4 0.2 1.3 3.5 -0.6 1.9 -1.6 3.5 -2.4 3.5 -0.8 0 -1.3 -1.3 -1.3 -3.5z"/>
  <path d="M76.3 78.5 c-0.7 -0.8 -1.3 -2.8 -1.3 -4.5 0 -2.8 0.3 -3 3.5 -3 1.9 0 3.5 0.5 3.5 1 0 0.6 -0.7 1 -1.5 1 -2.4 0 -1.7 2.6 1 3.8 1.4 0.6 2.5 1.6 2.5 2.2 0 1.5 -6.3 1.1 -7.7 -0.5z"/>
  <path d="M189 73 c0 -2.7 -0.3 -3 -3 -3 -2.5 0 -3 -0.4 -3 -2.5 0 -3.1 2.1 -2.5 6.7 1.8 4.2 3.9 4.9 6.7 1.7 6.7 -2 0 -2.4 -0.5 -2.4 -3z"/>
  <path d="M86.8 69.3 c-2.1 -0.5 -2.4 -4.3 -0.4 -4.3 2.8 0 7.6 2.3 7.6 3.6 0 1.4 -3.4 1.7 -7.2 0.7z"/>
  <path d="M167 68 c0 -1.2 3.3 -3 5.4 -3 0.9 0 1.6 0.9 1.6 2 0 1.6 -0.7 2 -3.5 2 -1.9 0 -3.5 -0.4 -3.5 -1z"/>
  <path d="M47.2 60.8 c-2 -2.6 -1.8 -7.8 0.3 -7.8 0.9 0 1.5 0.9 1.5 2.5 0 1.6 0.6 2.5 1.5 2.5 0.8 0 1.5 0.9 1.5 2 0 2.3 -3.1 2.8 -4.8 0.8z"/>
  <path d="M54 53.5 c0 -2.9 1.2 -3.2 3.4 -0.9 2.3 2.2 2 3.4 -0.9 3.4 -2 0 -2.5 -0.5 -2.5 -2.5z"/>
 </g>
 <g fill="#525252">
  <path d="M40.8 116.3 c-3.3 -0.8 -2 -3.3 1.7 -3.3 2.8 0 3.5 0.4 3.5 2 0 2 -1.4 2.3 -5.2 1.3z"/>
  <path d="M71.8 101.3 c-3.3 -0.8 -2 -3.3 1.7 -3.3 2.8 0 3.5 0.4 3.5 2 0 2 -1.4 2.3 -5.2 1.3z"/>
  <path d="M80 100.2 c0 -2 3.2 -3.2 8.6 -3.2 5.3 0 1.7 3.3 -4.9 4.5 -3.3 0.6 -3.7 0.5 -3.7 -1.3z"/>
  <path d="M101.5 100 c-1.8 -2 -1.7 -2 1.8 -2 3 0 3.7 0.4 3.7 2 0 1.3 -0.7 2 -1.8 2 -1.1 0 -2.7 -0.9 -3.7 -2z"/>
  <path d="M126.8 100.9 c-2.9 -1.6 -2.1 -2.9 1.7 -2.9 2.8 0 3.5 0.4 3.5 2 0 2.2 -2.4 2.6 -5.2 0.9z"/>
  <path d="M109 99.3 c0 -1 -0.3 -3.5 -0.6 -5.5 -0.7 -4.1 0.4 -4.9 3 -2.2 1.9 1.8 2.1 6.5 0.4 8.2 -1.7 1.7 -2.8 1.5 -2.8 -0.5z"/>
  <path d="M187 93 c0 -0.9 3.1 -3 4.4 -3 0.3 0 0.6 0.9 0.6 2 0 1.5 -0.7 2 -2.5 2 -1.4 0 -2.5 -0.4 -2.5 -1z"/>
  <path d="M128 87.5 c0 -2.2 0.5 -3.5 1.3 -3.5 0.8 0 1.8 1.6 2.4 3.5 1.1 3.3 1 3.5 -1.3 3.5 -2.1 0 -2.4 -0.5 -2.4 -3.5z"/>
  <path d="M212 85.5 c0 -1.9 -0.4 -3.5 -1 -3.5 -0.5 0 -1 -1.6 -1 -3.5 0 -1.9 -0.4 -3.5 -1 -3.5 -0.5 0 -1 -1.6 -1 -3.5 0 -2.2 0.5 -3.5 1.3 -3.5 0.9 0 2.4 3.8 4.2 10.2 2.7 9.6 2.9 10.1 3.7 7 1.1 -4.2 1.8 -4.1 1.8 0.3 0 3.3 -0.2 3.5 -3.5 3.5 -3.3 0 -3.5 -0.2 -3.5 -3.5z"/>
  <path d="M68.4 81.9 c-2.7 -3 -2.6 -10.2 0.3 -13 l2.1 -2.1 0 8.6 c0 4.7 -0.1 8.6 -0.2 8.6 -0.2 0 -1.1 -0.9 -2.2 -2.1z"/>
  <path d="M170 75.5 c0 -3.4 0.1 -3.5 3.7 -3.5 l3.7 0 -2.2 2 c-1.2 1.2 -2.2 2.7 -2.2 3.5 0 0.8 -0.7 1.5 -1.5 1.5 -1 0 -1.5 -1.1 -1.5 -3.5z"/>
  <path d="M81.8 73.3 c-3.3 -0.8 -2 -3.3 1.7 -3.3 2.8 0 3.5 0.4 3.5 2 0 2 -1.4 2.3 -5.2 1.3z"/>
  <path d="M199.6 73.1 c-0.3 -0.4 -1 -2 -1.5 -3.5 -1 -2.4 -0.8 -2.6 1.4 -2.6 2.2 0 2.5 0.4 2.5 3.5 0 3.3 -1.2 4.6 -2.4 2.6z"/>
  <path d="M165.3 68.5 c3.6 -3.2 4.7 -3.1 4.7 0 0 2.2 -0.4 2.5 -3.7 2.5 l-3.8 -0.1 2.8 -2.4z"/>
  <path d="M55 67.5 c0 -1.4 0.6 -2.5 1.3 -2.5 2 0 2.5 0.9 2 3.1 -0.8 2.8 -3.3 2.4 -3.3 -0.6z"/>
  <path d="M137 67.4 c0 -1.4 0.3 -1.4 1.5 -0.4 0.8 0.7 1.5 1.4 1.5 1.6 0 0.2 -0.7 0.4 -1.5 0.4 -0.8 0 -1.5 -0.7 -1.5 -1.6z"/>
  <path d="M140.6 66.8 c-1 -3.8 -0.7 -4.8 1.4 -4.8 1.6 0 2 0.7 2 3.5 0 4 -2.4 4.9 -3.4 1.3z"/>
  <path d="M46 54.2 c0 -1.4 2.3 -3.2 4.2 -3.2 1.1 0 1.8 0.7 1.8 2 0 1.6 -0.7 2 -3 2 -1.6 0 -3 -0.4 -3 -0.8z"/>
 </g>
 <g fill="#5a5a5a">
  <path d="M52 112 c0 -2.5 0.4 -3 2.5 -3 1.4 0 2.5 0.3 2.5 0.6 0 1.3 -2.1 4.2 -3.5 4.8 -1.1 0.4 -1.5 -0.2 -1.5 -2.4z"/>
  <path d="M39 108 c0 -1.5 0.7 -2 2.9 -2 1.6 0 3.2 -0.6 3.4 -1.2 0.3 -0.7 0.6 0.2 0.6 2 0.1 3 -0.1 3.2 -3.4 3.2 -2.8 0 -3.5 -0.4 -3.5 -2z"/>
  <path d="M133 99.4 c0 -2.1 0.5 -2.4 3.7 -2.4 3.5 0 3.6 0.1 1.9 1.9 -1 1 -2.6 2.1 -3.7 2.4 -1.5 0.4 -1.9 0 -1.9 -1.9z"/>
  <path d="M172.8 101.3 c-3.3 -0.8 -2 -3.3 1.7 -3.3 2.8 0 3.5 0.4 3.5 2 0 2 -1.4 2.3 -5.2 1.3z"/>
  <path d="M185 99 c0 -1.6 0.7 -2 3.5 -2 3.9 0 4.6 1.4 1.6 3 -3.1 1.6 -5.1 1.2 -5.1 -1z"/>
  <path d="M222 93.6 c0 -3.2 0.3 -3.6 2.5 -3.6 2.4 0 2.5 0.1 1.2 3.2 -1.9 4.6 -3.7 4.8 -3.7 0.4z"/>
  <path d="M75 94 c0 -1.6 0.7 -2 3.4 -2 4 0 5.4 -1.4 2.9 -2.9 -1.5 -0.9 -1.3 -1 1.5 -1.1 3 0 3.2 0.2 3.2 3.4 0 3.7 -1.5 4.6 -7.7 4.6 -2.6 0 -3.3 -0.4 -3.3 -2z"/>
  <path d="M180 94.6 c0 -1.3 2.8 -2.6 5.8 -2.6 0.6 0 1.2 0.9 1.2 2 0 1.6 -0.7 2 -3.5 2 -2.3 0 -3.5 -0.5 -3.5 -1.4z"/>
  <path d="M204.6 86.1 c-0.3 -0.4 -1 -2 -1.5 -3.5 -1 -2.4 -0.8 -2.6 1.4 -2.6 2.2 0 2.5 0.4 2.5 3.5 0 3.3 -1.2 4.6 -2.4 2.6z"/>
  <path d="M84 80.4 c0 -1.4 0.3 -2.4 0.8 -2.2 7.3 3.5 8 4.8 2.7 4.8 -3.1 0 -3.5 -0.3 -3.5 -2.6z"/>
  <path d="M118.5 78.8 c0.8 -4.9 2.1 -7.8 3.5 -7.8 1.1 0 1.3 2.8 0.4 8.3 -0.5 2.8 -1.1 3.7 -2.6 3.7 -1.8 0 -1.9 -0.5 -1.3 -4.2z"/>
  <path d="M179 80.6 c0 -0.7 0.9 -1.6 2 -1.9 1.3 -0.3 1.8 -1 1.4 -2.1 -0.4 -1.2 0 -1.6 1.5 -1.6 1.7 0 2.1 0.6 2.1 3.5 0 3.3 -0.2 3.5 -3.5 3.5 -2.3 0 -3.5 -0.5 -3.5 -1.4z"/>
  <path d="M219 79.8 c0 -3 1.3 -5.8 2.6 -5.8 0.9 0 1.4 1.2 1.4 3.5 0 2.8 -0.4 3.5 -2 3.5 -1.1 0 -2 -0.6 -2 -1.2z"/>
  <path d="M66 75.4 c0 -2.1 1.8 -5.4 3 -5.4 0.6 0 1 1.6 1 3.5 0 2.8 -0.4 3.5 -2 3.5 -1.1 0 -2 -0.7 -2 -1.6z"/>
  <path d="M160.2 76.3 c3.5 -7.4 4.8 -8.1 4.8 -2.8 0 3.1 -0.3 3.5 -2.6 3.5 -1.4 0 -2.4 -0.3 -2.2 -0.7z"/>
  <path d="M230 72.6 c0 -3.2 0.3 -3.6 2.5 -3.6 2.4 0 2.5 0.1 1.2 3.2 -1.9 4.6 -3.7 4.8 -3.7 0.4z"/>
  <path d="M222 69.6 c0 -2.5 1.2 -4.6 2.6 -4.6 0.9 0 1.4 1.1 1.4 3 0 2.3 -0.4 3 -2 3 -1.1 0 -2 -0.6 -2 -1.4z"/>
  <path d="M140.6 65.8 c-1 -3.8 -0.7 -4.8 1.4 -4.8 1.6 0 2 0.7 2 3.5 0 4 -2.4 4.9 -3.4 1.3z"/>
 </g>
 <g fill="#636363">
  <path d="M40.8 116.3 c-2 -0.3 -2.8 -1 -2.8 -2.5 0 -1.8 0.4 -2 3.1 -1.4 1.7 0.3 4.4 0.6 6 0.6 3.5 0 4 2.5 0.7 3.4 -1.3 0.3 -2.7 0.5 -3.3 0.4 -0.5 0 -2.2 -0.3 -3.7 -0.5z"/>
  <path d="M51 112.5 c0 -2.1 0.5 -2.5 3.1 -2.5 2.9 0 3 0.2 1.8 1.8 -3.1 3.9 -4.9 4.2 -4.9 0.7z"/>
  <path d="M38 108 c0 -1.6 0.6 -1.9 3.5 -1.8 2.7 0.1 3.5 0.6 3.5 2 0 1.4 -0.8 1.8 -3.5 1.8 -2.8 0 -3.5 -0.4 -3.5 -2z"/>
  <path d="M130 100 c0 -1.6 0.7 -2 3.5 -2 3.9 0 4.6 1.4 1.6 3 -3.1 1.6 -5.1 1.2 -5.1 -1z"/>
  <path d="M180 100 c0 -1.6 0.7 -2 3.5 -2 4 0 4.9 2.4 1.3 3.4 -3.8 1 -4.8 0.7 -4.8 -1.4z"/>
  <path d="M86 98.4 c0 -2.1 0.5 -2.4 3.7 -2.4 3.5 0 3.6 0.1 1.9 1.9 -1 1 -2.6 2.1 -3.7 2.4 -1.5 0.4 -1.9 0 -1.9 -1.9z"/>
  <path d="M142.2 98.9 c-1.1 -1.6 -1.6 -1.8 -2.8 -0.9 -1.1 1 -1.4 0.9 -1.4 -0.9 0 -1.7 -0.6 -2.1 -3.5 -2.1 -3.3 0 -3.5 -0.2 -3.5 -3.5 l0 -3.5 2 2 c1.1 1.1 2.7 2 3.5 2 0.8 0 1.5 0.5 1.5 1 0 0.6 1.6 1 3.5 1 3.3 0 3.5 0.2 3.5 3.5 0 4 -0.9 4.4 -2.8 1.4z"/>
  <path d="M168.8 99.9 c-2.9 -1.6 -2.1 -2.9 1.7 -2.9 2.8 0 3.5 0.4 3.5 2 0 2.2 -2.4 2.6 -5.2 0.9z"/>
  <path d="M209.6 99.1 c-0.3 -0.4 -1 -2 -1.5 -3.5 -1 -2.4 -0.8 -2.6 1.4 -2.6 2.2 0 2.5 0.4 2.5 3.5 0 3.3 -1.2 4.6 -2.4 2.6z"/>
  <path d="M121 95.3 c-0.8 -1.6 -1.6 -3.1 -1.8 -3.5 -0.2 -0.5 0.8 -0.8 2.2 -0.8 2.3 0 2.6 0.4 2.6 3.5 0 4.2 -1.2 4.5 -3 0.8z"/>
  <path d="M163.1 95.4 c-2.7 -3.5 -2.6 -4.4 0.4 -4.4 2.2 0 2.5 0.4 2.5 3.5 0 1.9 -0.2 3.5 -0.4 3.5 -0.3 0 -1.4 -1.2 -2.5 -2.6z"/>
  <path d="M74 94 c0 -1.7 0.6 -2 3.5 -1.7 2.6 0.1 3.5 0.7 3.5 2 0 1.3 -0.8 1.7 -3.5 1.7 -2.8 0 -3.5 -0.4 -3.5 -2z"/>
  <path d="M174 93.6 c0 -2.3 0.2 -2.4 3.5 -1.3 1.9 0.6 3.5 1.6 3.5 2.4 0 0.8 -1.3 1.3 -3.5 1.3 -3 0 -3.5 -0.3 -3.5 -2.4z"/>
  <path d="M91 90 c0 -5.5 2.3 -7.1 3.4 -2.5 0.8 3.3 -0.3 7.5 -2 7.5 -1 0 -1.4 -1.4 -1.4 -5z"/>
  <path d="M100 93.2 c0 -1.4 2.3 -3.2 4.2 -3.2 1.1 0 1.8 0.7 1.8 2 0 1.6 -0.7 2 -3 2 -1.6 0 -3 -0.4 -3 -0.8z"/>
  <path d="M118.6 87.8 c-1 -3.8 -0.7 -4.8 1.4 -4.8 1.6 0 2 0.7 2 3.5 0 4 -2.4 4.9 -3.4 1.3z"/>
  <path d="M225 85.6 c0 -3.2 0.3 -3.6 2.5 -3.6 2.4 0 2.5 0.1 1.2 3.2 -1.9 4.6 -3.7 4.8 -3.7 0.4z"/>
  <path d="M74.5 86.1 c-2.2 -1 -4.6 -2.5 -5.4 -3.4 -1.2 -1.5 -1 -1.7 2.3 -1.7 2 0 3.6 0.5 3.6 1 0 0.6 0.9 1 2 1 1.5 0 2 0.7 2 2.5 0 1.4 -0.1 2.5 -0.2 2.5 -0.2 0 -2.1 -0.9 -4.3 -1.9z"/>
  <path d="M141 79.5 c0 -0.8 -0.9 -2.4 -2 -3.5 l-2 -2 3.5 0 c3.3 0 3.5 0.2 3.5 3.5 0 2.4 -0.5 3.5 -1.5 3.5 -0.8 0 -1.5 -0.7 -1.5 -1.5z"/>
  <path d="M201.6 78.1 c-0.3 -0.4 -1 -2 -1.5 -3.5 -1 -2.4 -0.8 -2.6 1.4 -2.6 2.2 0 2.5 0.4 2.5 3.5 0 3.3 -1.2 4.6 -2.4 2.6z"/>
  <path d="M181.6 75.5 c-0.3 -0.8 -1.7 -1.7 -3.1 -2.1 -3.9 -1 -3.2 -3.4 1 -3.4 3.3 0 3.5 0.2 3.5 3.5 0 3.7 -0.4 4.4 -1.4 2z"/>
  <path d="M87.3 74.7 c-4.9 -1.5 -4.2 -3.7 1.1 -3.7 3.9 0 4.4 0.2 3.9 2 -0.7 2.7 -1.2 2.9 -5 1.7z"/>
  <path d="M71 68 c0 -1.2 3.3 -3 5.4 -3 0.9 0 1.6 0.9 1.6 2 0 1.6 -0.7 2 -3.5 2 -1.9 0 -3.5 -0.4 -3.5 -1z"/>
  <path d="M206 67 c0 -1.3 0.7 -2 1.9 -2 1 0 2.1 0.9 2.4 2 0.4 1.6 0 2 -1.9 2 -1.7 0 -2.4 -0.6 -2.4 -2z"/>
  <path d="M140.6 64.8 c-1 -3.8 -0.7 -4.8 1.4 -4.8 1.6 0 2 0.7 2 3.5 0 4 -2.4 4.9 -3.4 1.3z"/>
  <path d="M52 60 c0 -1.6 0.7 -2 3.7 -2 3.5 0 3.6 0 1.8 2 -1 1.1 -2.6 2 -3.7 2 -1.1 0 -1.8 -0.7 -1.8 -2z"/>
 </g>
 <g fill="#6b6b6b">
  <path d="M43.3 116.3 c-2.8 -1.1 -1.3 -3.3 2.2 -3.3 2.4 0 3.5 0.5 3.5 1.5 0 0.8 -0.4 1.5 -0.9 1.5 -0.5 0 -1.5 0.2 -2.3 0.4 -0.7 0.3 -1.9 0.2 -2.5 -0.1z"/>
  <path d="M38 107.9 c0 -1.4 0.5 -1.9 1.7 -1.7 2.6 0.5 2.9 3.8 0.4 3.8 -1.5 0 -2.1 -0.6 -2.1 -2.1z"/>
  <path d="M72.8 101.3 c-3.3 -0.8 -2 -3.3 1.7 -3.3 2.8 0 3.5 0.4 3.5 2 0 2 -1.4 2.3 -5.2 1.3z"/>
  <path d="M165.3 97.5 l-2.8 -2.4 3.8 -0.1 c3.3 0 3.7 0.3 3.7 2.5 0 3.1 -1.1 3.2 -4.7 0z"/>
  <path d="M77 94.6 c0 -0.8 1.4 -1.7 3.1 -2.1 2 -0.5 2.9 -1.1 2.5 -2.1 -0.3 -0.8 -0.1 -1.4 0.4 -1.4 0.6 0 1 1.6 1 3.5 0 3.3 -0.2 3.5 -3.5 3.5 -2.4 0 -3.5 -0.5 -3.5 -1.4z"/>
  <path d="M66 91.9 c0 -1.7 0.4 -2 2.3 -1.5 1.2 0.3 2.5 0.6 3 0.6 0.4 0 0.7 0.7 0.7 1.5 0 1 -1 1.5 -3 1.5 -2.4 0 -3 -0.4 -3 -2.1z"/>
  <path d="M91 89.5 c0 -3.9 2.4 -4.9 3.3 -1.4 0.7 2.7 -0.1 4.9 -1.9 4.9 -0.9 0 -1.4 -1.2 -1.4 -3.5z"/>
  <path d="M206.6 91.1 c-0.3 -0.4 -1 -2 -1.5 -3.5 -1 -2.4 -0.8 -2.6 1.4 -2.6 2.2 0 2.5 0.4 2.5 3.5 0 3.3 -1.2 4.6 -2.4 2.6z"/>
  <path d="M214 84.8 c0 -3.6 0.4 -3.5 1.4 0.5 0.4 1.6 0.2 2.7 -0.4 2.7 -0.5 0 -1 -1.4 -1 -3.2z"/>
  <path d="M217 86.8 c0 -3 1.3 -5.8 2.6 -5.8 0.9 0 1.4 1.2 1.4 3.5 0 2.8 -0.4 3.5 -2 3.5 -1.1 0 -2 -0.6 -2 -1.2z"/>
  <path d="M118 82.8 c0 -3 1.3 -5.8 2.6 -5.8 0.9 0 1.4 1.2 1.4 3.5 0 2.8 -0.4 3.5 -2 3.5 -1.1 0 -2 -0.6 -2 -1.2z"/>
  <path d="M228 77.6 c0 -3.2 0.3 -3.6 2.5 -3.6 2.4 0 2.5 0.1 1.2 3.2 -1.9 4.6 -3.7 4.8 -3.7 0.4z"/>
  <path d="M190 75.5 c0 -3.9 1.4 -4.6 3 -1.6 1.6 3.1 1.2 5.1 -1 5.1 -1.6 0 -2 -0.7 -2 -3.5z"/>
  <path d="M140.6 63.8 c-1 -3.8 -0.7 -4.8 1.4 -4.8 1.6 0 2 0.7 2 3.5 0 4 -2.4 4.9 -3.4 1.3z"/>
  <path d="M55 54.3 c0 -3.5 0 -3.6 2 -1.8 1.1 1 2 2.6 2 3.7 0 1.1 -0.7 1.8 -2 1.8 -1.6 0 -2 -0.7 -2 -3.7z"/>
  <path d="M140 54 c0 -1.3 0.7 -2 2 -2 1.3 0 2 0.7 2 2 0 1.3 -0.7 2 -2 2 -1.3 0 -2 -0.7 -2 -2z"/>
 </g>
 <g fill="#737373">
  <path d="M42.8 116.2 c-3.4 -0.7 -2 -3.2 1.7 -3.2 2.3 0 3.5 0.5 3.5 1.4 0 1.5 -2.5 2.4 -5.2 1.8z"/>
  <path d="M79 100 c0 -1.6 0.7 -2 3.5 -2 4 0 4.9 2.4 1.3 3.4 -3.8 1 -4.8 0.7 -4.8 -1.4z"/>
  <path d="M179 100 c0 -1.6 0.7 -2 3.5 -2 4 0 4.9 2.4 1.3 3.4 -3.8 1 -4.8 0.7 -4.8 -1.4z"/>
  <path d="M67.8 99.9 c-1.3 -0.7 -1.8 -2.3 -1.8 -5.5 0 -3.9 0.3 -4.5 1.8 -4 0.9 0.3 2.9 0.8 4.5 1.2 3.4 0.8 3.6 3.4 0.3 3.4 -2 0 -2.5 0.6 -2.8 2.9 -0.3 2.5 -0.6 2.8 -2 2z"/>
  <path d="M220 98 c0 -2.5 0.4 -3 2.4 -3 2.3 0 2.4 0.2 1.5 3 -0.6 1.7 -1.7 3 -2.5 3 -0.9 0 -1.4 -1.1 -1.4 -3z"/>
  <path d="M109 93.3 c0 -3.5 0 -3.6 2 -1.8 1.1 1 2 2.6 2 3.7 0 1.1 -0.7 1.8 -2 1.8 -1.6 0 -2 -0.7 -2 -3.7z"/>
  <path d="M162 93.3 c-0.8 -1.6 -1.6 -3.1 -1.8 -3.5 -0.2 -0.5 0.8 -0.8 2.2 -0.8 2.3 0 2.6 0.4 2.6 3.5 0 4.2 -1.2 4.5 -3 0.8z"/>
  <path d="M91 90.5 c0 -3.7 2.4 -5 3.2 -1.7 0.6 2.7 -0.2 5.2 -1.8 5.2 -0.9 0 -1.4 -1.1 -1.4 -3.5z"/>
  <path d="M138.8 91 c1.7 -1.6 2.2 -3.2 2.2 -7 0 -4.3 0.3 -5 2 -5 2.2 0 2.6 2.9 1.4 10.3 -0.6 3.5 -0.9 3.7 -4.2 3.7 l-3.6 0 2.2 -2z"/>
  <path d="M169 88.5 c0 -3.3 0.2 -3.5 3.5 -3.5 1.9 0 3.5 0.5 3.5 1 0 0.6 -1 1 -2.1 1 -2 0 -2.1 0.1 -0.5 2.5 1.6 2.5 1.6 2.5 -1.4 2.5 -2.8 0 -3 -0.3 -3 -3.5z"/>
  <path d="M213 88.5 c0 -3.8 1.3 -4.6 2.9 -1.7 1 1.6 1 1.6 1.1 0 0 -1 0.7 -1.8 1.5 -1.8 1 0 1.5 1.1 1.5 3.5 0 3.3 -0.2 3.5 -3.5 3.5 -3.3 0 -3.5 -0.2 -3.5 -3.5z"/>
  <path d="M118.6 86.8 c-1 -3.8 -0.7 -4.8 1.4 -4.8 1.6 0 2 0.7 2 3.5 0 4 -2.4 4.9 -3.4 1.3z"/>
  <path d="M190 85 c0 -1.3 0.7 -2 2 -2 1.3 0 2 0.7 2 2 0 1.3 -0.7 2 -2 2 -1.3 0 -2 -0.7 -2 -2z"/>
  <path d="M79 78.5 c0 -2.4 0.1 -2.5 3.2 -1.2 4.6 1.9 4.8 3.7 0.4 3.7 -3.2 0 -3.6 -0.3 -3.6 -2.5z"/>
  <path d="M66.7 77.8 c-0.8 -3.1 0.2 -6.8 1.9 -6.8 1 0 1.4 1.3 1.4 4.5 0 4.9 -2.3 6.4 -3.3 2.3z"/>
  <path d="M160 78.4 c0 -2.1 1.8 -5.4 3 -5.4 0.6 0 1 1.6 1 3.5 0 2.8 -0.4 3.5 -2 3.5 -1.1 0 -2 -0.7 -2 -1.6z"/>
  <path d="M180.8 79.3 c2.6 -0.5 2.7 -1.1 0.6 -4.1 -1.5 -2.1 -1.4 -2.2 1.5 -2.2 2.9 0 3.1 0.3 3.1 3.5 0 3.4 -0.1 3.5 -3.7 3.4 -2.4 -0.1 -2.9 -0.3 -1.5 -0.6z"/>
  <path d="M209 75.5 c0 -1.9 -0.4 -3.5 -1 -3.5 -0.5 0 -1 -1.6 -1 -3.6 0 -5 2.1 -3.9 4.2 2.2 2.3 6.7 2.2 8.4 -0.2 8.4 -1.6 0 -2 -0.7 -2 -3.5z"/>
  <path d="M220 76.8 c0 -3 1.3 -5.8 2.6 -5.8 0.9 0 1.4 1.2 1.4 3.5 0 2.8 -0.4 3.5 -2 3.5 -1.1 0 -2 -0.6 -2 -1.2z"/>
  <path d="M198 69.1 c-1.5 -2.9 -1.2 -4.1 1 -4.1 1.6 0 2 0.7 2 3 0 3.4 -1.4 3.9 -3 1.1z"/>
  <path d="M165 69.2 c0 -0.7 1.7 -1.8 6.3 -4 0.4 -0.2 0.7 0.8 0.7 2.2 0 2.3 -0.4 2.6 -3.5 2.6 -1.9 0 -3.5 -0.4 -3.5 -0.8z"/>
  <path d="M180 67 c0 -2.2 2 -2.6 5.1 -1 3 1.6 2.3 3 -1.6 3 -2.8 0 -3.5 -0.4 -3.5 -2z"/>
  <path d="M140.5 61.7 c-1 -5.2 -0.2 -9.1 1.8 -9.5 1.5 -0.3 1.7 0.5 1.7 6.2 0 5.1 -0.3 6.6 -1.5 6.6 -0.8 0 -1.7 -1.4 -2 -3.3z"/>
  <path d="M55 58.1 c0 -2.1 -0.5 -3.1 -1.5 -3.1 -0.9 0 -1.5 -0.9 -1.5 -2.1 0 -1.5 0.5 -2 2.2 -1.7 3 0.4 5.7 5.2 4.2 7.5 -1.8 3 -3.4 2.7 -3.4 -0.6z"/>
 </g>
 <g fill="#7b7b7b">
  <path d="M38.4 114.6 c-0.3 -0.8 -0.4 -2.9 -0.2 -4.8 0.3 -2.8 0.7 -3.3 3.1 -3.3 1.9 -0.1 2.7 0.4 2.7 1.7 0 1 -0.4 1.8 -1 1.8 -0.5 0 -1 1.4 -1 3 0 3.2 -2.6 4.3 -3.6 1.6z"/>
  <path d="M73.8 101.3 c-3.3 -0.8 -2 -3.3 1.7 -3.3 2.8 0 3.5 0.4 3.5 2 0 2 -1.4 2.3 -5.2 1.3z"/>
  <path d="M173.8 101.3 c-3.3 -0.8 -2 -3.3 1.7 -3.3 2.8 0 3.5 0.4 3.5 2 0 2 -1.4 2.3 -5.2 1.3z"/>
  <path d="M124.2 99.4 c-3 -2.1 -2.8 -3.4 0.8 -3.4 2.5 0 3 0.4 3 2.5 0 2.9 -0.7 3.1 -3.8 0.9z"/>
  <path d="M73 94 c0 -2.1 1 -2.4 4.8 -1.4 3.6 1 2.7 3.4 -1.3 3.4 -2.8 0 -3.5 -0.4 -3.5 -2z"/>
  <path d="M100 94 c0 -1 0.9 -2.4 2 -3 1.8 -1 2 -0.8 2 2 0 2.3 -0.4 3 -2 3 -1.3 0 -2 -0.7 -2 -2z"/>
  <path d="M181 94.7 c0 -0.8 2.3 -2 5.5 -2.9 5.2 -1.5 5.5 -1.4 5.5 0.3 0 1.2 -0.7 1.9 -2 1.9 -1.1 0 -2 0.5 -2 1 0 0.6 -1.6 1 -3.5 1 -2.3 0 -3.5 -0.5 -3.5 -1.3z"/>
  <path d="M120.2 93.3 c-1.3 -2.5 -2.2 -10.5 -1.5 -13.1 0.9 -3.5 3.3 -2.7 3.3 1.1 0 1.7 0.3 5.6 0.6 8.5 0.7 5.3 -0.6 7.1 -2.4 3.5z"/>
  <path d="M223 90.6 c0 -3.2 0.3 -3.6 2.5 -3.6 2.4 0 2.5 0.1 1.2 3.2 -1.9 4.6 -3.7 4.8 -3.7 0.4z"/>
  <path d="M170 86.5 l0 -3.5 12.1 0 c10.9 0 12 0.2 11.7 1.8 -0.3 1.5 -1.8 1.7 -11.2 2 -9 0.2 -10.7 0.5 -10.2 1.7 0.3 0.9 -0.1 1.5 -0.9 1.5 -1 0 -1.5 -1.1 -1.5 -3.5z"/>
  <path d="M73.3 85.4 c-4.3 -2.1 -4.2 -3.4 0.2 -3.4 3.1 0 3.5 0.3 3.5 2.5 0 1.4 -0.1 2.5 -0.2 2.5 -0.2 0 -1.8 -0.8 -3.5 -1.6z"/>
  <path d="M211 82.5 c0 -4 2.4 -4.9 3.4 -1.2 1 3.7 0.7 4.7 -1.4 4.7 -1.6 0 -2 -0.7 -2 -3.5z"/>
  <path d="M141.6 82.8 c-1 -3.8 -0.7 -4.8 1.4 -4.8 1.6 0 2 0.7 2 3.5 0 4 -2.4 4.9 -3.4 1.3z"/>
  <path d="M203.6 83.1 c-0.3 -0.4 -1 -2 -1.5 -3.5 -1 -2.4 -0.8 -2.6 1.4 -2.6 2.2 0 2.5 0.4 2.5 3.5 0 3.3 -1.2 4.6 -2.4 2.6z"/>
  <path d="M66.8 77.3 c-0.6 -2.8 0.2 -5.3 1.8 -5.3 0.9 0 1.4 1.1 1.4 3.5 0 3.7 -2.4 5 -3.2 1.8z"/>
  <path d="M130 75.5 c0 -3.3 0.2 -3.5 3.5 -3.5 2.4 0 3.5 0.5 3.5 1.5 0 0.8 -0.7 1.5 -1.5 1.5 -0.8 0 -2 0.9 -2.7 2 -1.9 2.9 -2.8 2.4 -2.8 -1.5z"/>
  <path d="M88.8 74.9 c-2.2 -1.2 -2.3 -2.9 -0.3 -2.9 0.8 0 1.5 -0.7 1.5 -1.5 0 -1 -1 -1.5 -3 -1.5 -2.3 0 -3 -0.4 -3 -2 0 -2.3 0.8 -2.4 6.1 -0.8 4.3 1.3 4.6 1.9 2.1 6.5 -1.4 2.6 -2 3 -3.4 2.2z"/>
  <path d="M162 73.2 c0 -1.3 3 -5.2 4.1 -5.2 0.5 0 0.9 1.4 0.9 3 0 2.5 -0.4 3 -2.5 3 -1.4 0 -2.5 -0.3 -2.5 -0.8z"/>
  <path d="M231 69.6 c0 -3.2 0.3 -3.6 2.5 -3.6 2.4 0 2.5 0.1 1.2 3.2 -1.9 4.6 -3.7 4.8 -3.7 0.4z"/>
  <path d="M222.7 67 c0.3 -1.1 1.4 -2 2.4 -2 1.2 0 1.9 0.7 1.9 2 0 1.4 -0.7 2 -2.4 2 -1.9 0 -2.3 -0.4 -1.9 -2z"/>
  <path d="M140.7 55.1 c-0.5 -2.2 0 -3.1 2 -3.1 0.7 0 1.3 1.1 1.3 2.5 0 3 -2.5 3.4 -3.3 0.6z"/>
 </g>
 <g fill="#848484">
  <path d="M38.8 115.3 c-0.2 -0.5 -0.4 -2.6 -0.4 -4.7 0.1 -3.6 0.3 -3.9 2.9 -4 2.8 -0.2 4.7 -1.9 4.7 -4.3 0 -0.7 0.7 -1.3 1.5 -1.3 1 0 1.5 1 1.5 3.1 0 3.5 -2 5.9 -4.9 5.9 -1.7 0 -2.1 0.6 -2.1 3 0 1.9 -0.5 3 -1.4 3 -0.8 0 -1.6 -0.3 -1.8 -0.7z"/>
  <path d="M78 100 c0 -1.6 0.7 -2 3.5 -2 4 0 4.9 2.4 1.3 3.4 -3.8 1 -4.8 0.7 -4.8 -1.4z"/>
  <path d="M105 100 c0 -1.6 0.7 -2 3.5 -2 3.9 0 4.6 1.4 1.6 3 -3.1 1.6 -5.1 1.2 -5.1 -1z"/>
  <path d="M126.5 100.5 c-3 -1.6 -5.5 -4.2 -5.5 -5.7 0 -0.4 1.1 -0.8 2.5 -0.8 1.8 0 2.5 0.5 2.5 2 0 1.7 0.7 2 5 2 3.6 0 5 0.4 5 1.4 0 1.2 -2.8 2.6 -5.5 2.6 -0.5 0 -2.3 -0.7 -4 -1.5z"/>
  <path d="M178 100 c0 -1.6 0.7 -2 3.5 -2 4 0 4.9 2.4 1.3 3.4 -3.8 1 -4.8 0.7 -4.8 -1.4z"/>
  <path d="M208.6 96.1 c-0.3 -0.4 -1 -2 -1.5 -3.5 -1 -2.4 -0.8 -2.6 1.4 -2.6 2.2 0 2.5 0.4 2.5 3.5 0 3.3 -1.2 4.6 -2.4 2.6z"/>
  <path d="M135 93.7 c0 -0.7 1.3 -1.7 2.8 -2.3 2.4 -0.9 3 -1.9 3.6 -5.3 0.8 -5.3 3.6 -5.8 3.6 -0.6 0 2.4 -0.5 3.5 -1.5 3.5 -1 0 -1.5 1 -1.5 3 0 2.8 -0.3 3 -3.5 3 -2.2 0 -3.5 -0.5 -3.5 -1.3z"/>
  <path d="M185 93.6 c0 -1.3 2.8 -2.6 5.8 -2.6 0.6 0 1.2 0.9 1.2 2 0 1.6 -0.7 2 -3.5 2 -2.3 0 -3.5 -0.5 -3.5 -1.4z"/>
  <path d="M83 91 c0 -0.5 -1.3 -1.6 -3 -2.5 -4 -2.1 -3.8 -3.5 0.5 -3.5 3.3 0 3.5 0.2 3.5 3.5 0 1.9 -0.2 3.5 -0.5 3.5 -0.3 0 -0.5 -0.4 -0.5 -1z"/>
  <path d="M118.8 85.3 c-0.6 -2.8 0.2 -5.3 1.8 -5.3 0.9 0 1.4 1.1 1.4 3.5 0 3.7 -2.4 5 -3.2 1.8z"/>
  <path d="M190.8 86.3 c-2.8 -0.7 -2.2 -3.3 0.7 -3.3 1.5 0 2.5 0.6 2.5 1.4 0 1.8 -1 2.4 -3.2 1.9z"/>
  <path d="M226 82.6 c0 -3.2 0.3 -3.6 2.5 -3.6 2.4 0 2.5 0.1 1.2 3.2 -1.9 4.6 -3.7 4.8 -3.7 0.4z"/>
  <path d="M87 82.5 c0 -2.9 0.7 -3.1 3.8 -0.9 3 2.1 2.8 3.4 -0.8 3.4 -2.5 0 -3 -0.4 -3 -2.5z"/>
  <path d="M218 83.8 c0 -3 1.3 -5.8 2.6 -5.8 0.9 0 1.4 1.2 1.4 3.5 0 2.8 -0.4 3.5 -2 3.5 -1.1 0 -2 -0.6 -2 -1.2z"/>
  <path d="M128 79.1 c0 -4.9 0.9 -6.1 4.6 -6.1 1.9 0 3.4 0.5 3.4 1 0 0.6 -0.6 1 -1.4 1 -0.8 0 -2 1.6 -2.7 3.5 -1.6 4.3 -3.9 4.6 -3.9 0.6z"/>
  <path d="M169 77.5 c0 -3 0.3 -3.5 2.4 -3.5 1.9 0 2.2 0.4 1.8 2.5 -0.3 1.8 0 2.5 1.2 2.5 0.9 0 1.6 0.5 1.6 1 0 0.6 -1.6 1 -3.5 1 -3.3 0 -3.5 -0.2 -3.5 -3.5z"/>
  <path d="M200.6 75.1 c-0.3 -0.4 -1 -2 -1.5 -3.5 -1 -2.4 -0.8 -2.6 1.4 -2.6 2.2 0 2.5 0.4 2.5 3.5 0 3.3 -1.2 4.6 -2.4 2.6z"/>
  <path d="M82.8 73.3 c-3.3 -0.8 -2 -3.3 1.7 -3.3 2.8 0 3.5 0.4 3.5 2 0 2 -1.4 2.3 -5.2 1.3z"/>
  <path d="M163.6 70.5 c0.6 -1.4 3.5 -3.5 4.8 -3.5 0.3 0 0.6 1.1 0.6 2.5 0 2.1 -0.5 2.5 -3 2.5 -2.2 0 -2.8 -0.4 -2.4 -1.5z"/>
  <path d="M90 68.6 c0 -1.9 0.4 -2.3 2.1 -1.9 1.2 0.4 1.8 1.1 1.5 2 -0.3 0.8 -0.6 1.7 -0.6 1.9 0 0.2 -0.7 0.4 -1.5 0.4 -0.9 0 -1.5 -0.9 -1.5 -2.4z"/>
 </g>
 <g fill="#8c8c8c">
  <path d="M74 101.3 c-5.7 -0.9 -7 -1.4 -7 -3 0 -1.3 0.8 -1.5 4.6 -0.9 2.6 0.3 6.4 0.6 8.5 0.6 2.7 0 3.9 0.4 3.9 1.4 0 2.1 -3.9 2.9 -10 1.9z"/>
  <path d="M174.8 101.3 c-1 -0.2 -1.8 -1.1 -1.8 -1.9 0 -1 1.4 -1.4 5.5 -1.4 4 0 5.5 0.4 5.5 1.4 0 2.1 -4.8 3.1 -9.2 1.9z"/>
  <path d="M168.3 99.4 c-4.3 -2.1 -4.2 -3.4 0.2 -3.4 3.1 0 3.5 0.3 3.5 2.5 0 1.4 -0.1 2.5 -0.2 2.5 -0.2 0 -1.8 -0.8 -3.5 -1.6z"/>
  <path d="M161 91.1 c-1.6 -3.1 -1.2 -5.1 1 -5.1 1.6 0 2 0.7 2 3.5 0 3.9 -1.4 4.6 -3 1.6z"/>
  <path d="M212 86.5 c0 -4.5 2.3 -4.7 3.8 -0.2 0.7 2.2 1 2.6 1.1 1.2 0.1 -1.1 0.6 -2.7 1.1 -3.5 0.7 -1.1 1 -0.5 1 2.3 0 3.6 -0.1 3.7 -3.5 3.7 -3.3 0 -3.5 -0.2 -3.5 -3.5z"/>
  <path d="M205.6 88.1 c-0.3 -0.4 -1 -2 -1.5 -3.5 -1 -2.4 -0.8 -2.6 1.4 -2.6 2.2 0 2.5 0.4 2.5 3.5 0 3.3 -1.2 4.6 -2.4 2.6z"/>
  <path d="M89 84 c0 -2.2 0.4 -2.8 1.5 -2.4 1.4 0.6 3.5 3.5 3.5 4.8 0 0.3 -1.1 0.6 -2.5 0.6 -2.1 0 -2.5 -0.5 -2.5 -3z"/>
  <path d="M172 73.5 c0 -3.3 0.2 -3.5 3.5 -3.5 2.4 0 3.5 0.5 3.5 1.5 0 0.8 -0.7 1.5 -1.5 1.5 -0.8 0 -2.4 0.9 -3.5 2 l-2 2 0 -3.5z"/>
  <path d="M221 73.8 c0 -3 1.3 -5.8 2.6 -5.8 0.9 0 1.4 1.2 1.4 3.5 0 2.8 -0.4 3.5 -2 3.5 -1.1 0 -2 -0.6 -2 -1.2z"/>
  <path d="M120 73.1 c0 -0.6 1.1 -2.3 2.5 -3.8 l2.4 -2.8 0.1 3.8 c0 3.3 -0.3 3.7 -2.5 3.7 -1.4 0 -2.5 -0.4 -2.5 -0.9z"/>
  <path d="M68 70.1 c0 -1.1 3.9 -4.1 5.2 -4.1 0.5 0 0.8 1.1 0.8 2.5 0 2.1 -0.5 2.5 -3 2.5 -1.6 0 -3 -0.4 -3 -0.9z"/>
  <path d="M132 67 c0 -2.2 2 -2.6 5.1 -1 3 1.6 2.3 3 -1.6 3 -2.8 0 -3.5 -0.4 -3.5 -2z"/>
  <path d="M168 68 c0 -1.2 3.3 -3 5.4 -3 0.9 0 1.6 0.9 1.6 2 0 1.6 -0.7 2 -3.5 2 -1.9 0 -3.5 -0.4 -3.5 -1z"/>
  <path d="M232 67 c0 -1.4 0.7 -2 2.1 -2 1.5 0 1.9 0.4 1.5 1.6 -0.3 0.9 -0.6 1.8 -0.6 2 0 0.2 -0.7 0.4 -1.5 0.4 -0.8 0 -1.5 -0.9 -1.5 -2z"/>
  <path d="M47.8 60.9 c-2.5 -1.4 -2.3 -4.9 0.2 -4.9 1.6 0 2 0.7 2 3 0 1.7 -0.1 3 -0.2 3 -0.2 0 -1.1 -0.5 -2 -1.1z"/>
 </g>
 <g fill="#949494">
  <path d="M54 108.5 c0 -2.8 0.4 -3.5 2 -3.5 2.2 0 2.6 2 1 5.1 -1.6 3 -3 2.3 -3 -1.6z"/>
  <path d="M75.8 101.3 c-1 -0.2 -1.8 -1.1 -1.8 -1.9 0 -1 1.3 -1.4 4.5 -1.4 3.2 0 4.5 0.4 4.5 1.4 0 1.1 -3.3 2.8 -5 2.5 -0.3 -0.1 -1.3 -0.3 -2.2 -0.6z"/>
  <path d="M102.8 100.9 c-2.9 -1.6 -2.1 -2.9 1.7 -2.9 2.8 0 3.5 0.4 3.5 2 0 2.2 -2.4 2.6 -5.2 0.9z"/>
  <path d="M128.5 101.1 c-2.7 -0.8 -4.7 -2.2 -6.4 -4.3 -1.2 -1.6 -1.1 -1.8 1.8 -1.8 2.1 0 3.1 0.5 3.1 1.5 0 1.1 1.1 1.5 4 1.5 2.9 0 4 0.4 4 1.5 0 0.8 -0.4 1.5 -0.9 1.5 -0.5 0 -1.5 0.2 -2.3 0.4 -0.7 0.2 -2.2 0.1 -3.3 -0.3z"/>
  <path d="M175.8 101.3 c-1 -0.2 -1.8 -1.1 -1.8 -1.9 0 -1 1.3 -1.4 4.5 -1.4 3.2 0 4.5 0.4 4.5 1.4 0 1.1 -3.3 2.8 -5 2.5 -0.3 -0.1 -1.3 -0.3 -2.2 -0.6z"/>
  <path d="M187 98.5 c0 -2 0.5 -2.5 2.6 -2.5 3.2 0 3 2.9 -0.3 4.1 -2 0.7 -2.3 0.5 -2.3 -1.6z"/>
  <path d="M221 95.6 c0 -3.2 0.3 -3.6 2.5 -3.6 2.4 0 2.5 0.1 1.2 3.2 -1.9 4.6 -3.7 4.8 -3.7 0.4z"/>
  <path d="M72 94 c0 -2.1 1 -2.4 4.8 -1.4 3.6 1 2.7 3.4 -1.3 3.4 -2.8 0 -3.5 -0.4 -3.5 -2z"/>
  <path d="M141.4 83.5 c0 -5.6 0.2 -6.5 1.8 -6.5 1.6 0 1.8 0.9 1.8 6.5 0 5.6 -0.2 6.5 -1.8 6.5 -1.6 0 -1.8 -0.9 -1.8 -6.5z"/>
  <path d="M169 78.5 c0 -2.9 0.4 -3.5 2.1 -3.5 1.5 0 1.9 0.4 1.5 1.6 -0.4 1.1 0.1 1.8 1.4 2.1 3.5 0.9 2.4 3.3 -1.5 3.3 -3.3 0 -3.5 -0.2 -3.5 -3.5z"/>
  <path d="M229 74.6 c0 -3.2 0.3 -3.6 2.5 -3.6 2.4 0 2.5 0.1 1.2 3.2 -1.9 4.6 -3.7 4.8 -3.7 0.4z"/>
  <path d="M119.7 74 c0.3 -1.1 2 -3.5 3.8 -5.5 3.8 -3.9 7.5 -4.7 7.5 -1.5 0 1.6 -0.7 2 -3.5 2 -3.3 0 -3.5 0.2 -3.5 3.5 0 3 -0.3 3.5 -2.4 3.5 -1.9 0 -2.3 -0.4 -1.9 -2z"/>
  <path d="M208 72.5 l0 -3.5 -4.9 0 c-4.5 0 -6.1 -1 -6.1 -3.6 0 -0.2 2.5 -0.4 5.5 -0.4 4.8 0 5.5 0.2 5.5 2 0 1.1 0.6 2 1.4 2 1.3 0 2.6 2.8 2.6 5.8 0 0.6 -0.9 1.2 -2 1.2 -1.6 0 -2 -0.7 -2 -3.5z"/>
  <path d="M137 71.5 c0 -0.8 -0.7 -1.5 -1.5 -1.5 -0.9 0 -1.5 -0.9 -1.5 -2.5 0 -2.7 1.9 -2.6 5.3 0.3 1.5 1.4 1.7 1.3 1.7 -0.1 0 -1 0.7 -1.7 1.5 -1.7 1 0 1.5 1.1 1.5 3.5 0 3.3 -0.2 3.5 -3.5 3.5 -2.4 0 -3.5 -0.5 -3.5 -1.5z"/>
  <path d="M163.1 71.1 c0.7 -1 2 -2.3 3 -3 1.7 -1 1.9 -0.8 1.9 1.9 0 2.7 -0.3 3 -3 3 -2.7 0 -2.9 -0.2 -1.9 -1.9z"/>
  <path d="M46 67 c0 -1.8 0.7 -2 6 -2 5.3 0 6 0.2 6 2 0 1.8 -0.7 2 -6 2 -5.3 0 -6 -0.2 -6 -2z"/>
  <path d="M223 67 c0.9 -1.6 2.1 -2 6.4 -2 5.7 0 6.7 0.4 5.9 2.6 -0.4 1 -2.3 1.4 -6.9 1.4 -6.2 0 -6.4 -0.1 -5.4 -2z"/>
  <path d="M47.6 60.4 c-2.2 -2.2 -2.1 -2.4 1.9 -2.4 2.8 0 3.5 0.4 3.5 2 0 2.4 -3.2 2.7 -5.4 0.4z"/>
  <path d="M46 55 c0 -1 0.9 -2.4 2 -3 1.8 -1 2 -0.8 2 2 0 2.3 -0.4 3 -2 3 -1.3 0 -2 -0.7 -2 -2z"/>
 </g>
 <g fill="#9c9c9c">
  <path d="M47 114 c0 -1.6 0.7 -2 3.5 -2 3.9 0 4.6 1.4 1.6 3 -3.1 1.6 -5.1 1.2 -5.1 -1z"/>
  <path d="M39 108.1 c0 -1.4 0.5 -1.8 2 -1.4 1.1 0.3 2 1.2 2 1.9 0 0.8 -0.9 1.4 -2 1.4 -1.3 0 -2 -0.7 -2 -1.9z"/>
  <path d="M109 97.5 c0 -2.8 0.4 -3.5 2 -3.5 2.2 0 2.6 2 1 5.1 -1.6 3 -3 2.3 -3 -1.6z"/>
  <path d="M142.6 99.4 c-0.9 -2.3 -0.8 -2.4 1.9 -2.4 1.8 0 2.5 0.5 2.5 2 0 2.4 -3.5 2.8 -4.4 0.4z"/>
  <path d="M184 99 c0 -1.6 0.7 -2 3.5 -2 3.9 0 4.6 1.4 1.6 3 -3.1 1.6 -5.1 1.2 -5.1 -1z"/>
  <path d="M209.1 98 c-0.9 -2.8 -0.8 -3 1.5 -3 2 0 2.4 0.5 2.4 3 0 1.9 -0.5 3 -1.4 3 -0.8 0 -1.9 -1.3 -2.5 -3z"/>
  <path d="M89 96 c0 -2.5 0.4 -3 2.5 -3 2.9 0 3.1 0.7 0.9 3.8 -2.1 3 -3.4 2.8 -3.4 -0.8z"/>
  <path d="M164.5 96.5 c-3 -3 -3.2 -4.5 -0.4 -4.5 2.6 0 4.9 2.3 4.9 4.9 0 2.8 -1.5 2.6 -4.5 -0.4z"/>
  <path d="M78 94.6 c0 -0.8 1.2 -1.7 2.6 -2 3.3 -0.9 2.6 -2.7 -1.9 -4.9 -4.7 -2.2 -4.7 -3.7 -0.2 -3.7 3.1 0 3.5 0.3 3.5 2.5 0 1.6 0.6 2.5 1.5 2.5 1 0 1.5 1.1 1.5 3.5 0 3.3 -0.2 3.5 -3.5 3.5 -2.3 0 -3.5 -0.5 -3.5 -1.4z"/>
  <path d="M169.6 90.9 c-1.3 -6.8 -0.9 -7.9 2.9 -7.9 2.4 0 3.5 0.5 3.5 1.5 0 0.8 -0.6 1.5 -1.4 1.5 -2.8 0 -2.9 2.3 -0.3 4.6 3.5 3 3.4 3.4 -0.7 3.4 -3 0 -3.4 -0.4 -4 -3.1z"/>
  <path d="M128 88.5 c0 -4.5 2 -4.5 4.1 0 l1.6 3.5 -2.8 0 c-2.6 0 -2.9 -0.3 -2.9 -3.5z"/>
  <path d="M224 87.6 c0 -3.2 0.3 -3.6 2.5 -3.6 2.4 0 2.5 0.1 1.2 3.2 -1.9 4.6 -3.7 4.8 -3.7 0.4z"/>
  <path d="M210 79.5 c0 -4 2.4 -4.9 3.4 -1.2 1 3.7 0.7 4.7 -1.4 4.7 -1.6 0 -2 -0.7 -2 -3.5z"/>
  <path d="M81 80.5 c0 -1 -1 -1.5 -3 -1.5 -2.8 0 -3 -0.3 -3 -3.5 0 -3.4 0.1 -3.5 3.8 -3.4 3.3 0 3.4 0.1 1.4 1 -3 1.2 -2 2.6 3.4 4.9 5.3 2.3 5.7 4 0.9 4 -2.4 0 -3.5 -0.5 -3.5 -1.5z"/>
  <path d="M219 80.8 c0 -3 1.3 -5.8 2.6 -5.8 0.9 0 1.4 1.2 1.4 3.5 0 2.8 -0.4 3.5 -2 3.5 -1.1 0 -2 -0.6 -2 -1.2z"/>
  <path d="M202.6 80.1 c-0.3 -0.4 -1 -2 -1.5 -3.5 -1 -2.4 -0.8 -2.6 1.4 -2.6 2.2 0 2.5 0.4 2.5 3.5 0 3.3 -1.2 4.6 -2.4 2.6z"/>
  <path d="M190 76.5 c0 -4 2.4 -4.9 3.4 -1.2 1 3.7 0.7 4.7 -1.4 4.7 -1.6 0 -2 -0.7 -2 -3.5z"/>
  <path d="M119 77.4 c0 -2.1 1.8 -5.4 3 -5.4 0.6 0 1 1.6 1 3.5 0 2.8 -0.4 3.5 -2 3.5 -1.1 0 -2 -0.7 -2 -1.6z"/>
  <path d="M89 72.5 c0 -1.4 -0.4 -2.5 -1 -2.5 -0.5 0 -1 -0.9 -1 -2 0 -2.3 2.7 -2.7 5.3 -0.7 1.4 1.1 1.4 1.6 0.2 4.5 -1.7 3.8 -3.5 4.2 -3.5 0.7z"/>
  <path d="M67 72 c0 -1.5 3.8 -5 6.6 -6 3.8 -1.5 5.4 -1.2 5.4 1 0 1.6 -0.7 2 -3.5 2 -2.8 0 -3.5 0.4 -3.5 2 0 1.5 -0.7 2 -2.5 2 -1.4 0 -2.5 -0.4 -2.5 -1z"/>
  <path d="M123.4 68.1 c1 -1 2.6 -2.1 3.7 -2.4 1.5 -0.4 1.9 0 1.9 1.9 0 2.1 -0.5 2.4 -3.7 2.4 -3.5 0 -3.6 -0.1 -1.9 -1.9z"/>
  <path d="M46 66.9 c0 -1.5 0.4 -1.9 1.6 -1.5 0.9 0.3 2 0.6 2.5 0.6 0.5 0 0.9 0.7 0.9 1.5 0 0.9 -0.9 1.5 -2.5 1.5 -1.9 0 -2.5 -0.5 -2.5 -2.1z"/>
  <path d="M53 67.6 c0 -1.4 3.4 -2.8 4.4 -1.8 1.5 1.4 0.4 3.2 -1.9 3.2 -1.5 0 -2.5 -0.6 -2.5 -1.4z"/>
  <path d="M198 68 c0 -0.5 -0.1 -1.3 -0.2 -1.6 -0.2 -0.3 2.4 -0.7 5.7 -0.8 5 -0.1 6 0.2 6.3 1.7 0.3 1.5 -0.5 1.7 -5.7 1.7 -3.4 0 -6.1 -0.4 -6.1 -1z"/>
  <path d="M227 67.6 c0 -2.1 7.1 -3.3 7.8 -1.3 0.7 2.1 -0.2 2.7 -3.8 2.7 -2.8 0 -4 -0.4 -4 -1.4z"/>
  <path d="M49 61.3 c-3.5 -1.4 -3.9 -4.3 -0.5 -4.3 2 0 2.5 0.5 2.5 2.5 0 1.4 -0.1 2.5 -0.2 2.4 -0.2 0 -1 -0.3 -1.8 -0.6z"/>
 </g>
 <g fill="#a5a5a5">
  <path d="M107.2 99.2 c0.2 -2.1 0.9 -2.8 3 -3 2.5 -0.3 2.7 -0.1 2 1.9 -0.5 1.2 -1.9 2.6 -3.1 3.1 -2 0.7 -2.2 0.5 -1.9 -2z"/>
  <path d="M83 99 c0 -1.6 0.7 -2 3.5 -2 3.2 0 3.5 -0.2 3.5 -3 0 -2.3 0.4 -3 2 -3 1.3 0 2 0.7 2 1.8 -0.1 5.1 -11 11.3 -11 6.2z"/>
  <path d="M124.5 99 c-1.8 -2 -1.7 -2 1.8 -2 3 0 3.7 0.4 3.7 2 0 1.3 -0.7 2 -1.8 2 -1.1 0 -2.7 -0.9 -3.7 -2z"/>
  <path d="M219 99 c0 -1.4 0.7 -2 2.4 -2 1.9 0 2.3 0.4 1.9 2 -0.3 1.1 -1.4 2 -2.4 2 -1.2 0 -1.9 -0.7 -1.9 -2z"/>
  <path d="M172.3 95.3 c-0.7 -0.2 -1.3 -2.1 -1.3 -4.1 l0 -3.6 2 2.2 c1.1 1.2 3.2 2.5 4.5 2.8 3.8 0.9 3.2 3.4 -0.7 3.3 -1.8 0 -3.9 -0.3 -4.5 -0.6z"/>
  <path d="M182 94.6 c0 -1.3 2.8 -2.6 5.8 -2.6 0.6 0 1.2 0.9 1.2 2 0 1.6 -0.7 2 -3.5 2 -2.3 0 -3.5 -0.5 -3.5 -1.4z"/>
  <path d="M100 94.1 c0 -1.2 2.9 -4.1 4.1 -4.1 0.5 0 0.9 1.1 0.9 2.5 0 2 -0.5 2.5 -2.5 2.5 -1.4 0 -2.5 -0.4 -2.5 -0.9z"/>
  <path d="M106 92 c0 -2.3 2.9 -2.7 4.8 -0.8 1.9 1.9 1.4 2.8 -1.8 2.8 -2.3 0 -3 -0.4 -3 -2z"/>
  <path d="M207.6 93.1 c-0.3 -0.4 -1 -2 -1.5 -3.5 -1 -2.4 -0.8 -2.6 1.4 -2.6 2.2 0 2.5 0.4 2.5 3.5 0 3.3 -1.2 4.6 -2.4 2.6z"/>
  <path d="M88 83 c0 -2.7 0.2 -2.9 1.9 -1.9 1 0.7 2.3 2 3 3 1 1.7 0.8 1.9 -1.9 1.9 -2.7 0 -3 -0.3 -3 -3z"/>
  <path d="M69.5 82.5 c-3 -3 -3.2 -4.5 -0.4 -4.5 2.6 0 4.9 2.3 4.9 4.9 0 2.8 -1.5 2.6 -4.5 -0.4z"/>
  <path d="M227 79.6 c0 -3.2 0.3 -3.6 2.5 -3.6 2.4 0 2.5 0.1 1.2 3.2 -1.9 4.6 -3.7 4.8 -3.7 0.4z"/>
  <path d="M180.8 74.8 c-1.6 -1.6 -2.8 -3.1 -2.8 -3.4 0 -0.2 1.6 -0.4 3.5 -0.4 3.3 0 3.5 0.2 3.5 3.5 0 4.2 -0.6 4.2 -4.2 0.3z"/>
  <path d="M199.6 72.1 c-0.3 -0.4 -1 -2 -1.5 -3.5 -1 -2.4 -0.8 -2.6 1.4 -2.6 2.2 0 2.5 0.4 2.5 3.5 0 3.3 -1.2 4.6 -2.4 2.6z"/>
  <path d="M222 70.6 c0 -2.5 1.2 -4.6 2.6 -4.6 0.9 0 1.4 1.1 1.4 3 0 2.3 -0.4 3 -2 3 -1.1 0 -2 -0.6 -2 -1.4z"/>
  <path d="M69 69.4 c0 -1.2 3.4 -3.3 5.3 -3.4 1 0 1.7 0.7 1.7 2 0 1.6 -0.7 2 -3.5 2 -1.9 0 -3.5 -0.3 -3.5 -0.6z"/>
  <path d="M232 68 c0 -1.3 0.7 -2 2 -2 1.8 0 1.9 0.3 1 2 -0.6 1.1 -1.5 2 -2 2 -0.6 0 -1 -0.9 -1 -2z"/>
  <path d="M55 56.5 c0 -4.8 1.2 -5.8 3.1 -2.4 0.8 1.6 0.8 2.8 0 4.5 -1.7 3.8 -3.1 2.8 -3.1 -2.1z"/>
  <path d="M46 54.6 c0 -0.3 0.7 -1.2 1.6 -2 2.2 -2.3 5.4 -2 5.4 0.4 0 1.6 -0.7 2 -3.5 2 -1.9 0 -3.5 -0.2 -3.5 -0.4z"/>
 </g>
 <g fill="#adadad">
  <path d="M103.8 101.3 c-3.3 -0.8 -2 -3.3 1.7 -3.3 3.3 0 3.5 -0.2 3.5 -3.5 0 -3.9 1.4 -4.6 3 -1.6 1.4 2.8 1.3 3.5 -1.5 6.5 -2.4 2.6 -3.3 2.8 -6.7 1.9z"/>
  <path d="M87 97.5 c0 -2.1 0.5 -2.5 3 -2.5 2.2 0 2.8 0.4 2.4 1.5 -0.6 1.4 -3.5 3.5 -4.8 3.5 -0.3 0 -0.6 -1.1 -0.6 -2.5z"/>
  <path d="M164.6 96.4 l-2.9 -2.9 2.8 -0.3 c3.4 -0.4 3.7 -0.1 3.3 3.3 l-0.3 2.8 -2.9 -2.9z"/>
  <path d="M90 85.3 c0 -3.5 0 -3.6 2 -1.8 1.1 1 2 2.6 2 3.7 0 1.1 -0.7 1.8 -2 1.8 -1.6 0 -2 -0.7 -2 -3.7z"/>
  <path d="M204.6 85.1 c-0.3 -0.4 -1 -2 -1.5 -3.5 -1 -2.4 -0.8 -2.6 1.4 -2.6 2.2 0 2.5 0.4 2.5 3.5 0 3.3 -1.2 4.6 -2.4 2.6z"/>
  <path d="M160 79.8 c0 -3 1.3 -5.8 2.6 -5.8 0.9 0 1.4 1.2 1.4 3.5 0 2.8 -0.4 3.5 -2 3.5 -1.1 0 -2 -0.6 -2 -1.2z"/>
  <path d="M136.3 75.2 c-2.5 -0.2 -3.3 -0.8 -3.3 -2.3 0 -1 0.6 -1.9 1.4 -1.9 0.9 0 1.6 -1.2 1.8 -2.7 l0.3 -2.8 2.3 2.3 2.2 2.2 0 -2.5 c0 -1.4 0.5 -2.5 1 -2.5 0.6 0 1 1.6 1 3.5 0 2.4 -0.5 3.5 -1.4 3.5 -0.8 0 -1.6 0.8 -1.8 1.8 -0.2 1.3 -1.1 1.6 -3.5 1.4z"/>
  <path d="M86.8 74.3 c-3.4 -0.9 -2 -3.3 1.8 -3.3 2.8 0 3.5 0.3 3.2 1.7 -0.3 1.9 -2.1 2.4 -5 1.6z"/>
  <path d="M188 73 c0 -1.3 -0.7 -2 -2 -2 -1.1 0 -2 -0.4 -2 -1 0 -0.5 -1.1 -1 -2.5 -1 -1.8 0 -2.5 -0.5 -2.5 -2 0 -2.4 1.8 -2.5 6.4 -0.6 3.1 1.3 7.6 5.9 7.6 7.7 0 0.5 -1.1 0.9 -2.5 0.9 -1.8 0 -2.5 -0.5 -2.5 -2z"/>
  <path d="M68.1 70.3 c3.1 -4 4.9 -4.3 4.9 -0.8 0 2.1 -0.5 2.5 -3.1 2.5 -2.9 0 -3 -0.2 -1.8 -1.7z"/>
  <path d="M83 67 c0 -2.1 1 -2.4 4.8 -1.4 3.6 1 2.7 3.4 -1.3 3.4 -2.8 0 -3.5 -0.4 -3.5 -2z"/>
  <path d="M51 60 c0 -1.6 0.7 -2 3.5 -2 3.9 0 4.6 1.4 1.6 3 -3.1 1.6 -5.1 1.2 -5.1 -1z"/>
  <path d="M51 53 c0 -2.2 2 -2.6 5.1 -1 3 1.6 2.3 3 -1.6 3 -2.8 0 -3.5 -0.4 -3.5 -2z"/>
 </g>
 <g fill="#b5b5b5">
  <path d="M53 110.7 c0 -3.2 0.3 -3.7 2.4 -3.7 1.9 0 2.3 0.4 1.9 1.9 -0.3 1.1 -1.4 2.7 -2.4 3.7 -1.8 1.7 -1.9 1.6 -1.9 -1.9z"/>
  <path d="M101.2 99.8 c-1.9 -1.9 -1.5 -4.8 0.8 -4.8 1.6 0 2 0.7 2 3 0 3.2 -0.9 3.7 -2.8 1.8z"/>
  <path d="M134 98.5 c0 -1.6 0.6 -2.5 1.5 -2.5 0.8 0 1.5 -0.7 1.5 -1.5 0 -1 1.1 -1.5 3.5 -1.5 3.4 0 3.5 0.1 3.5 3.8 -0.1 3.4 -0.2 3.5 -1.5 1.8 -1.3 -1.8 -1.5 -1.8 -4.1 0.3 -3.5 2.7 -4.4 2.7 -4.4 -0.4z"/>
  <path d="M169.8 99.9 c-2.9 -1.6 -2.1 -2.9 1.7 -2.9 2.8 0 3.5 0.4 3.5 2 0 2.2 -2.4 2.6 -5.2 0.9z"/>
  <path d="M188 97.5 c0 -1.8 0.5 -2.5 2 -2.5 2.4 0 2.8 3.5 0.4 4.4 -2.3 0.9 -2.4 0.8 -2.4 -1.9z"/>
  <path d="M222 92.6 c0 -3.2 0.3 -3.6 2.5 -3.6 2.4 0 2.5 0.1 1.2 3.2 -1.9 4.6 -3.7 4.8 -3.7 0.4z"/>
  <path d="M119.6 91.8 c-1 -3.8 -0.7 -4.8 1.4 -4.8 1.6 0 2 0.7 2 3.5 0 4 -2.4 4.9 -3.4 1.3z"/>
  <path d="M129 90.5 c0 -1.9 0.2 -3.5 0.4 -3.5 0.6 0 6.6 6 6.6 6.6 0 0.2 -1.6 0.4 -3.5 0.4 -3.3 0 -3.5 -0.2 -3.5 -3.5z"/>
  <path d="M214 88 c0 -0.5 -0.7 -1 -1.5 -1 -1 0 -1.5 -1.1 -1.5 -3.5 0 -1.9 -0.4 -3.5 -1 -3.5 -0.5 0 -1 -1.6 -1 -3.5 0 -1.9 -0.4 -3.5 -1 -3.5 -0.5 0 -1 -1.6 -1 -3.5 0 -2.2 0.5 -3.5 1.3 -3.5 0.9 0 2.4 3.8 4.2 10.3 1.5 5.6 3 10.8 3.3 11.5 0.2 0.6 -0.1 1.2 -0.7 1.2 -0.6 0 -1.1 -0.4 -1.1 -1z"/>
  <path d="M217 87.8 c0 -3 1.3 -5.8 2.6 -5.8 0.9 0 1.4 1.2 1.4 3.5 0 2.8 -0.4 3.5 -2 3.5 -1.1 0 -2 -0.6 -2 -1.2z"/>
  <path d="M220 77.8 c0 -3 1.3 -5.8 2.6 -5.8 0.9 0 1.4 1.2 1.4 3.5 0 2.8 -0.4 3.5 -2 3.5 -1.1 0 -2 -0.6 -2 -1.2z"/>
  <path d="M189 73.5 c0 -3.3 -0.2 -3.5 -3.5 -3.5 -2.8 0 -3.5 -0.4 -3.5 -2 0 -3.2 3.4 -2.4 7.4 1.6 4 4 4.8 7.4 1.6 7.4 -1.6 0 -2 -0.7 -2 -3.5z"/>
  <path d="M132 73.5 c0 -2.2 0.4 -2.5 3.5 -2.5 2.9 0 3.5 0.4 3.5 2.1 0 1.2 -0.5 1.9 -1.2 1.6 -0.7 -0.2 -2.3 0 -3.5 0.4 -2 0.7 -2.3 0.5 -2.3 -1.6z"/>
  <path d="M230 71.6 c0 -3.2 0.3 -3.6 2.5 -3.6 2.4 0 2.5 0.1 1.2 3.2 -1.9 4.6 -3.7 4.8 -3.7 0.4z"/>
  <path d="M55 56.5 c0 -3.7 2.4 -5 3.2 -1.7 0.6 2.7 -0.2 5.2 -1.8 5.2 -0.9 0 -1.4 -1.1 -1.4 -3.5z"/>
  <path d="M46 55.3 c0 -1.4 1.5 -2.9 3.3 -3.6 1.3 -0.5 1.7 -0.1 1.7 1.8 0 2 -0.5 2.5 -2.5 2.5 -1.4 0 -2.5 -0.3 -2.5 -0.7z"/>
 </g>
 <g fill="#bdbdbd">
  <path d="M49 113.4 c0 -2.1 0.5 -2.4 3.7 -2.4 3.5 0 3.6 0.1 1.9 1.9 -1 1 -2.6 2.1 -3.7 2.4 -1.5 0.4 -1.9 0 -1.9 -1.9z"/>
  <path d="M104.8 101.2 c-3.1 -0.6 -2.1 -3.2 1.2 -3.2 2.5 0 3 -0.4 3 -2.5 0 -2.8 2.4 -3.4 3.4 -0.9 1.3 3.5 -3.3 7.6 -7.6 6.6z"/>
  <path d="M88 97.1 c0 -2.6 0.4 -3.1 2.5 -3.1 3.5 0 3.2 1.8 -0.7 4.9 -1.6 1.2 -1.8 1.1 -1.8 -1.8z"/>
  <path d="M136 97 c0 -2.8 0.3 -3 3.5 -3 3.1 0 3.5 0.3 3.5 2.7 0 2.6 -0.1 2.6 -1.5 0.7 -0.8 -1 -1.5 -1.4 -1.5 -0.7 0 0.7 -0.9 1.7 -2 2.3 -1.8 1 -2 0.8 -2 -2z"/>
  <path d="M188.2 95.8 c0.2 -3.1 0.8 -4.4 2.1 -4.6 1.3 -0.3 1.7 0.4 1.7 3 0 3.3 -1.4 5.8 -3.3 5.8 -0.4 0 -0.7 -1.9 -0.5 -4.2z"/>
  <path d="M209.6 98.1 c-0.3 -0.4 -1 -2 -1.5 -3.5 -1 -2.4 -0.8 -2.6 1.4 -2.6 2.2 0 2.5 0.4 2.5 3.5 0 3.3 -1.2 4.6 -2.4 2.6z"/>
  <path d="M69.3 95.3 c-1.6 -0.3 -2.3 -1.1 -2.3 -2.7 l0 -2.3 5.5 1.5 c8.9 2.5 6.2 5.3 -3.2 3.5z"/>
  <path d="M82.4 91.3 c0.1 -1.2 -1.9 -2.7 -6.2 -4.9 -3.5 -1.7 -6.9 -4 -7.7 -5 -2.1 -2.8 -1.9 -5.4 0.5 -5.4 1.1 0 2 0.7 2 1.5 0 0.8 0.5 1.5 1 1.5 0.6 0 1 0.9 1 2 0 1.6 0.7 2 3.5 2 2.4 0 3.5 0.5 3.5 1.5 0 1 1 1.5 3 1.5 2.8 0 3 0.3 3 3.5 0 2.8 -0.4 3.5 -1.9 3.5 -1.2 0 -1.8 -0.7 -1.7 -1.7z"/>
  <path d="M213 89.5 c0 -3.8 1.3 -4.6 2.9 -1.7 1 1.6 1 1.6 1.1 0 0 -1 0.7 -1.8 1.5 -1.8 1 0 1.5 1.1 1.5 3.5 0 3.3 -0.2 3.5 -3.5 3.5 -3.3 0 -3.5 -0.2 -3.5 -3.5z"/>
  <path d="M141.3 87.5 c0.6 -1.9 1.6 -3.5 2.4 -3.5 0.8 0 1.3 1.3 1.3 3.5 0 3 -0.3 3.5 -2.4 3.5 -2.3 0 -2.4 -0.2 -1.3 -3.5z"/>
  <path d="M225 84.6 c0 -3.2 0.3 -3.6 2.5 -3.6 2.4 0 2.5 0.1 1.2 3.2 -1.9 4.6 -3.7 4.8 -3.7 0.4z"/>
  <path d="M84.3 83.3 c-0.7 -0.2 -1.3 -1.1 -1.3 -1.9 0 -0.9 -1.1 -1.4 -3.5 -1.4 -3.3 0 -3.5 -0.2 -3.5 -3.5 0 -2.4 0.5 -3.5 1.5 -3.5 0.8 0 1.2 0.6 0.9 1.3 -0.3 0.9 1.5 2.2 5.3 3.9 3.2 1.4 6.5 3.3 7.2 4.2 1.2 1.4 1 1.6 -2 1.5 -1.9 0 -4 -0.3 -4.6 -0.6z"/>
  <path d="M141.3 79.5 c-1.1 -3.3 -1 -3.5 1.3 -3.5 2.1 0 2.4 0.5 2.4 3.5 0 2.2 -0.5 3.5 -1.3 3.5 -0.8 0 -1.8 -1.6 -2.4 -3.5z"/>
  <path d="M161 76.4 c0 -2.1 1.8 -5.4 3 -5.4 0.6 0 1 1.6 1 3.5 0 2.8 -0.4 3.5 -2 3.5 -1.1 0 -2 -0.7 -2 -1.6z"/>
  <path d="M201.6 77.1 c-0.3 -0.4 -1 -2 -1.5 -3.5 -1 -2.4 -0.8 -2.6 1.4 -2.6 2.2 0 2.5 0.4 2.5 3.5 0 3.3 -1.2 4.6 -2.4 2.6z"/>
  <path d="M67 73.2 c0 -1.1 0.9 -2.7 2 -3.7 2 -1.8 2 -1.7 2 1.8 0 3 -0.4 3.7 -2 3.7 -1.3 0 -2 -0.7 -2 -1.8z"/>
  <path d="M85.8 73.8 c-5.9 -1.6 -4.9 -3.8 1.7 -3.8 5.2 0 5.4 0.1 4.6 2.2 -1 2.7 -1.6 2.8 -6.3 1.6z"/>
  <path d="M135 68.5 c0 -3 1.4 -3.2 3.8 -0.5 1.7 2.1 1.7 2.1 2.3 -1.2 l0.6 -3.3 0.2 3.8 c0.1 3.6 0 3.7 -3.4 3.7 -3.1 0 -3.5 -0.3 -3.5 -2.5z"/>
  <path d="M169 67.6 c0 -1.3 2.8 -2.6 5.8 -2.6 0.6 0 1.2 0.9 1.2 2 0 1.6 -0.7 2 -3.5 2 -2.3 0 -3.5 -0.5 -3.5 -1.4z"/>
 </g>
 <g fill="#c5c5c5">
  <path d="M68.8 100.3 c-3.3 -0.8 -2 -3.3 1.7 -3.3 2.8 0 3.5 0.4 3.5 2 0 2 -1.4 2.3 -5.2 1.3z"/>
  <path d="M132 99 c0 -1.1 0.7 -2 1.5 -2 0.8 0 1.5 -0.4 1.5 -1 0 -0.5 2.5 -1 5.5 -1 5.4 0 5.5 0 5.5 3 0 3.7 -1.4 3.8 -3.6 0.5 l-1.6 -2.5 -2.6 2.5 c-3 3.1 -6.2 3.3 -6.2 0.5z"/>
  <path d="M220 97.6 c0 -3.2 0.3 -3.6 2.5 -3.6 2.4 0 2.5 0.1 1.2 3.2 -1.9 4.6 -3.7 4.8 -3.7 0.4z"/>
  <path d="M188 97 c0 -1.9 0.5 -3 1.4 -3 1.8 0 2.7 3.5 1.3 4.9 -1.8 1.8 -2.7 1.2 -2.7 -1.9z"/>
  <path d="M109 95.5 c0 -3.7 2.4 -5 3.2 -1.7 0.6 2.7 -0.2 5.2 -1.8 5.2 -0.9 0 -1.4 -1.1 -1.4 -3.5z"/>
  <path d="M121 95.1 c-1.6 -3.1 -1.2 -5.1 1 -5.1 1.6 0 2 0.7 2 3.5 0 3.9 -1.4 4.6 -3 1.6z"/>
  <path d="M67 92 c0 -1.8 0.3 -1.9 2 -1 1.1 0.6 2 1.5 2 2 0 0.6 -0.9 1 -2 1 -1.3 0 -2 -0.7 -2 -2z"/>
  <path d="M101.5 92 c1 -1.1 2.6 -2 3.7 -2 1.1 0 1.8 0.7 1.8 2 0 1.6 -0.7 2 -3.7 2 -3.5 0 -3.6 0 -1.8 -2z"/>
  <path d="M160.6 89.8 c-1 -3.8 -0.7 -4.8 1.4 -4.8 1.6 0 2 0.7 2 3.5 0 4 -2.4 4.9 -3.4 1.3z"/>
  <path d="M206.6 90.1 c-0.3 -0.4 -1 -2 -1.5 -3.5 -1 -2.4 -0.8 -2.6 1.4 -2.6 2.2 0 2.5 0.4 2.5 3.5 0 3.3 -1.2 4.6 -2.4 2.6z"/>
  <path d="M218 84.8 c0 -3 1.3 -5.8 2.6 -5.8 0.9 0 1.4 1.2 1.4 3.5 0 2.8 -0.4 3.5 -2 3.5 -1.1 0 -2 -0.6 -2 -1.2z"/>
  <path d="M78 79 c0 -1.1 -0.7 -2 -1.5 -2 -1 0 -1.5 -1.1 -1.5 -3.5 0 -3.3 0.2 -3.5 3.5 -3.5 3.9 0 5 2.4 1.5 3.3 -3 0.8 -2.4 2.5 1.5 4.1 1.9 0.8 3.5 2 3.5 2.5 0 0.6 -1.6 1.1 -3.5 1.1 -2.8 0 -3.5 -0.4 -3.5 -2z"/>
  <path d="M190 77.5 c0 -4 2.4 -4.9 3.4 -1.2 1 3.7 0.7 4.7 -1.4 4.7 -1.6 0 -2 -0.7 -2 -3.5z"/>
  <path d="M228 76.6 c0 -3.2 0.3 -3.6 2.5 -3.6 2.4 0 2.5 0.1 1.2 3.2 -1.9 4.6 -3.7 4.8 -3.7 0.4z"/>
  <path d="M139.2 76.3 c-1.3 -1.4 -2.9 -2.2 -3.8 -1.9 -0.9 0.4 -1.4 -0.1 -1.4 -1.4 0 -1.5 0.7 -2 2.9 -2 4.9 0 6.1 0.9 6.1 4.6 0 4 -0.7 4.1 -3.8 0.7z"/>
  <path d="M161.7 74.1 c0.3 -1.1 1.4 -2.7 2.4 -3.7 1.8 -1.7 1.9 -1.6 1.9 1.9 0 3.2 -0.3 3.7 -2.4 3.7 -1.9 0 -2.3 -0.4 -1.9 -1.9z"/>
  <path d="M221 74.8 c0 -3 1.3 -5.8 2.6 -5.8 0.9 0 1.4 1.2 1.4 3.5 0 2.8 -0.4 3.5 -2 3.5 -1.1 0 -2 -0.6 -2 -1.2z"/>
  <path d="M198 68 c-0.9 -1.7 -0.8 -2 1 -2 1.3 0 2 0.7 2 2 0 1.1 -0.4 2 -1 2 -0.5 0 -1.4 -0.9 -2 -2z"/>
  <path d="M73 67.6 c0 -1.3 2.8 -2.6 5.8 -2.6 0.6 0 1.2 0.9 1.2 2 0 1.6 -0.7 2 -3.5 2 -2.3 0 -3.5 -0.5 -3.5 -1.4z"/>
  <path d="M48.8 60.9 c-2.9 -1.6 -2.1 -2.9 1.7 -2.9 2.8 0 3.5 0.4 3.5 2 0 2.2 -2.4 2.6 -5.2 0.9z"/>
  <path d="M149 54 c0 -1.3 0.7 -2 2 -2 1.3 0 2 0.7 2 2 0 1.3 -0.7 2 -2 2 -1.3 0 -2 -0.7 -2 -2z"/>
  <path d="M47 54 c0 -1.2 3.3 -3 5.4 -3 0.9 0 1.6 0.9 1.6 2 0 1.6 -0.7 2 -3.5 2 -1.9 0 -3.5 -0.4 -3.5 -1z"/>
 </g>
 <g fill="#cecece">
  <path d="M54 107.5 c0 -2.8 0.4 -3.5 2 -3.5 2.2 0 2.6 2 1 5.1 -1.6 3 -3 2.3 -3 -1.6z"/>
  <path d="M101 99 c-1 -1.8 -0.8 -2 2 -2 2.3 0 3 0.4 3 2 0 1.3 -0.7 2 -2 2 -1 0 -2.4 -0.9 -3 -2z"/>
  <path d="M183 99 c0 -1.6 0.7 -2 3.5 -2 4 0 4.9 2.4 1.3 3.4 -3.8 1 -4.8 0.7 -4.8 -1.4z"/>
  <path d="M209.7 99 c-0.4 -1.6 0 -2 1.9 -2 1.7 0 2.4 0.6 2.4 2 0 1.3 -0.7 2 -1.9 2 -1 0 -2.1 -0.9 -2.4 -2z"/>
  <path d="M122.8 97.3 c-2.9 -3.4 -3 -5.3 -0.3 -5.3 2.2 0 2.5 0.4 2.5 3.5 0 4 -0.1 4.1 -2.2 1.8z"/>
  <path d="M183 94.7 c0 -0.8 1.1 -1.8 2.4 -2.1 1.3 -0.3 3.2 -0.9 4.1 -1.2 1.3 -0.5 1.6 -0.2 1.3 1.7 -0.2 2 -1 2.5 -4 2.7 -2.8 0.2 -3.8 -0.1 -3.8 -1.1z"/>
  <path d="M130 91.3 l0 -3.7 2 2.2 c1.2 1.2 2.7 2.2 3.5 2.2 0.8 0 1.5 0.7 1.5 1.5 0 1 -1.1 1.5 -3.5 1.5 -3.4 0 -3.5 -0.1 -3.5 -3.7z"/>
  <path d="M169 89.5 c0 -2.4 0.5 -3.5 1.5 -3.5 0.8 0 1.5 0.7 1.5 1.5 0 0.8 0.9 2.4 2 3.5 l2 2 -3.5 0 c-3.3 0 -3.5 -0.2 -3.5 -3.5z"/>
  <path d="M223 89.6 c0 -3.2 0.3 -3.6 2.5 -3.6 2.4 0 2.5 0.1 1.2 3.2 -1.9 4.6 -3.7 4.8 -3.7 0.4z"/>
  <path d="M212 87.5 c0 -1.9 -0.4 -3.5 -1 -3.5 -0.5 0 -1 -1.6 -1 -3.5 0 -1.9 -0.4 -3.5 -1 -3.5 -0.5 0 -1 -1.6 -1 -3.5 0 -2.2 0.5 -3.5 1.3 -3.5 0.9 0 2.4 3.8 4.2 10.2 2.7 9.6 2.9 10.1 3.7 7 1.1 -4.2 1.8 -4.1 1.8 0.3 0 3.3 -0.2 3.5 -3.5 3.5 -3.3 0 -3.5 -0.2 -3.5 -3.5z"/>
  <path d="M203.6 82.1 c-0.3 -0.4 -1 -2 -1.5 -3.5 -1 -2.4 -0.8 -2.6 1.4 -2.6 2.2 0 2.5 0.4 2.5 3.5 0 3.3 -1.2 4.6 -2.4 2.6z"/>
  <path d="M160 80.8 c0 -3 1.3 -5.8 2.6 -5.8 0.9 0 1.4 1.2 1.4 3.5 0 2.8 -0.4 3.5 -2 3.5 -1.1 0 -2 -0.6 -2 -1.2z"/>
  <path d="M119 78.3 c0 -1 0.9 -3.7 1.9 -6 2.8 -6.2 9.9 -9.1 15.2 -6.3 3.5 1.9 2 3 -4.1 3 -5.3 0 -6 0.2 -6 2 0 1.1 -0.7 2 -1.5 2 -1 0 -1.5 1.1 -1.5 3.5 0 2.8 -0.4 3.5 -2 3.5 -1.2 0 -2 -0.7 -2 -1.7z"/>
  <path d="M169 76.5 c0 -3.2 0.2 -3.5 3.1 -3.5 2.9 0 3 0.1 1.5 2.2 -2.1 3 -2 3.6 0.7 4.1 1.3 0.3 0.8 0.5 -1.5 0.6 -3.7 0.1 -3.8 0 -3.8 -3.4z"/>
  <path d="M181.7 75 c-0.9 -1.1 -2.4 -2 -3.2 -2 -0.8 0 -1.5 -0.7 -1.5 -1.5 0 -1 1.1 -1.5 3.5 -1.5 3.3 0 3.5 0.2 3.5 3.5 0 1.9 -0.1 3.5 -0.3 3.5 -0.1 0 -1 -0.9 -2 -2z"/>
  <path d="M90 69.5 c0 -1.4 0.6 -2.5 1.3 -2.5 2.1 0 2.7 1.1 1.6 3.1 -1.4 2.7 -2.9 2.3 -2.9 -0.6z"/>
  <path d="M231 69 c0 -2.3 0.4 -3 2 -3 2.2 0 2.5 1.2 1 4.1 -1.6 2.8 -3 2.3 -3 -1.1z"/>
  <path d="M166.3 68.5 c3.4 -3 6.7 -3.3 6.7 -0.6 0 2.2 -1.9 3.1 -6.3 3.1 l-3.2 -0.1 2.8 -2.4z"/>
  <path d="M82 67 c0 -2.1 1 -2.4 4.8 -1.4 3.6 1 2.7 3.4 -1.3 3.4 -2.8 0 -3.5 -0.4 -3.5 -2z"/>
  <path d="M178 67 c0 -2.1 1 -2.4 4.8 -1.4 3.6 1 2.7 3.4 -1.3 3.4 -2.8 0 -3.5 -0.4 -3.5 -2z"/>
  <path d="M50.7 61.3 c-1.8 -1.7 -0.5 -3.3 2.8 -3.3 4 0 4.9 2.4 1.3 3.4 -2.9 0.7 -3.3 0.7 -4.1 -0.1z"/>
  <path d="M50 53.6 c0 -2.1 1.5 -2.8 4.5 -2 3.9 1 3.2 3.4 -1 3.4 -2.4 0 -3.5 -0.5 -3.5 -1.4z"/>
 </g>
 <g fill="#d6d6d6">
  <path d="M39 114 c0 -1.3 0.7 -2 2 -2 1.3 0 2 0.7 2 2 0 1.3 -0.7 2 -2 2 -1.3 0 -2 -0.7 -2 -2z"/>
  <path d="M46 114 c0 -1.6 0.7 -2 3.5 -2 3.9 0 4.6 1.4 1.6 3 -3.1 1.6 -5.1 1.2 -5.1 -1z"/>
  <path d="M82 99.2 c0 -2.1 2.4 -3.2 7.5 -3.2 2.9 0 2.9 0 1 2 -1.1 1.1 -3.5 2.2 -5.3 2.6 -2.8 0.6 -3.2 0.4 -3.2 -1.4z"/>
  <path d="M149 77 c0 -23.3 0.1 -24 2 -24 1.9 0 2 0.7 2 24 0 23.3 -0.1 24 -2 24 -1.9 0 -2 -0.7 -2 -24z"/>
  <path d="M100 95.2 c0 -1.9 1.8 -4.2 3.2 -4.2 0.4 0 0.8 1.4 0.8 3 0 2.3 -0.4 3 -2 3 -1.3 0 -2 -0.7 -2 -1.8z"/>
  <path d="M163.3 94.6 c-2.9 -3.6 -3 -6.6 -0.3 -6.6 2.1 0 3.4 3.2 2.8 7.1 -0.3 2.4 -0.3 2.4 -2.5 -0.5z"/>
  <path d="M208.6 95.1 c-0.3 -0.4 -1 -2 -1.5 -3.5 -1 -2.4 -0.8 -2.6 1.4 -2.6 2.2 0 2.5 0.4 2.5 3.5 0 3.3 -1.2 4.6 -2.4 2.6z"/>
  <path d="M127 84.8 c0 -5.9 1.2 -10.8 2.6 -10.8 0.8 0 1.4 -0.7 1.4 -1.5 0 -1 1.1 -1.5 3.5 -1.5 1.9 0 3.5 0.5 3.5 1 0 0.6 1.4 1 3 1 2.8 0 3 0.3 3 3.5 0 4 -1.4 4.5 -3.1 1.3 -3.7 -7 -9.9 -3.7 -9.9 5.2 0 4.3 -0.3 5 -2 5 -1.6 0 -2 -0.7 -2 -3.2z"/>
  <path d="M74.5 85.6 c-1.7 -0.7 -3.6 -2 -4.4 -2.9 -1.2 -1.5 -1 -1.7 2 -1.7 4.4 0 6.2 1.2 5.7 3.8 -0.3 1.9 -0.5 1.9 -3.3 0.8z"/>
  <path d="M226 81.6 c0 -3.2 0.3 -3.6 2.5 -3.6 2.4 0 2.5 0.1 1.2 3.2 -1.9 4.6 -3.7 4.8 -3.7 0.4z"/>
  <path d="M219 81.8 c0 -3 1.3 -5.8 2.6 -5.8 0.9 0 1.4 1.2 1.4 3.5 0 2.8 -0.4 3.5 -2 3.5 -1.1 0 -2 -0.6 -2 -1.2z"/>
  <path d="M183 77.5 c0 -0.8 -0.9 -2.4 -2 -3.5 l-2 -2 3.5 0 c3.3 0 3.5 0.2 3.5 3.5 0 2.4 -0.5 3.5 -1.5 3.5 -0.8 0 -1.5 -0.7 -1.5 -1.5z"/>
  <path d="M200.6 74.1 c-0.3 -0.4 -1 -2 -1.5 -3.5 -1 -2.4 -0.8 -2.6 1.4 -2.6 2.2 0 2.5 0.4 2.5 3.5 0 3.3 -1.2 4.6 -2.4 2.6z"/>
  <path d="M87.8 70.3 c-2 -0.5 -2.5 -4.3 -0.5 -4.3 3.2 0 5.7 1.4 5.7 3.1 0 1.9 -1.4 2.2 -5.2 1.2z"/>
  <path d="M122.6 69.5 c0.6 -1.4 3.5 -3.5 4.8 -3.5 0.3 0 0.6 1.1 0.6 2.5 0 2.1 -0.5 2.5 -3 2.5 -2.2 0 -2.8 -0.4 -2.4 -1.5z"/>
  <path d="M206 68 c0 -1.3 0.7 -2 2 -2 1.3 0 2 0.7 2 2 0 1.3 -0.7 2 -2 2 -1.3 0 -2 -0.7 -2 -2z"/>
  <path d="M49.8 61.3 c-2.7 -0.7 -2.1 -3.1 0.7 -3.5 3.5 -0.4 3.6 -2.2 0.3 -2.6 -1.6 -0.2 -2.8 -0.9 -2.8 -1.6 0 -1.8 3.3 -2.6 6.8 -1.7 2.1 0.6 2.8 1.4 3 4 0.2 1.9 0 3.7 -0.5 4.1 -1.1 1.1 -5.5 1.8 -7.5 1.3z"/>
 </g>
 <g fill="#dedede">
  <path d="M42 108.2 c0 -0.4 0.9 -1.3 2 -2 1.1 -0.7 2 -1.9 2 -2.7 0 -0.8 0.7 -1.5 1.5 -1.5 1 0 1.5 1.1 1.5 3.5 0 3.3 -0.2 3.5 -3.5 3.5 -1.9 0 -3.5 -0.3 -3.5 -0.8z"/>
  <path d="M69.3 100.3 c-2.6 -0.5 -3.3 -4.3 -0.8 -4.3 0.8 0 1.5 -0.9 1.5 -2 0 -2.1 1 -2.4 4.8 -1.4 3.4 1 2.7 3.4 -1 3.5 -2.4 0.1 -2.7 0.3 -1 0.6 1.4 0.3 2.2 1.2 2.2 2.4 0 1.9 -1 2.1 -5.7 1.2z"/>
  <path d="M149 98.5 c0 -3 2.5 -3.4 3.3 -0.6 0.5 2.2 0 3.1 -2 3.1 -0.7 0 -1.3 -1.1 -1.3 -2.5z"/>
  <path d="M169.5 99.6 c-1.7 -0.7 -3.6 -2 -4.4 -2.9 -1.2 -1.5 -1 -1.7 2.3 -1.7 2 0 3.6 0.5 3.6 1 0 0.6 1.1 1 2.5 1 1.8 0 2.5 0.5 2.5 2 0 2.3 -2.1 2.5 -6.5 0.6z"/>
  <path d="M210.6 100.1 c-0.3 -0.4 -1 -2 -1.5 -3.5 -1 -2.4 -0.8 -2.6 1.4 -2.6 2.2 0 2.5 0.4 2.5 3.5 0 3.3 -1.2 4.6 -2.4 2.6z"/>
  <path d="M186 98.1 c0 -1.6 0.6 -2.1 2.6 -2.1 3.3 0 3 3.3 -0.4 3.8 -1.7 0.3 -2.2 -0.2 -2.2 -1.7z"/>
  <path d="M221 94.6 c0 -3.2 0.3 -3.6 2.5 -3.6 2.4 0 2.5 0.1 1.2 3.2 -1.9 4.6 -3.7 4.8 -3.7 0.4z"/>
  <path d="M90 93.5 c0 -2.8 0.4 -3.5 2 -3.5 2.2 0 2.6 2 1 5.1 -1.6 3 -3 2.3 -3 -1.6z"/>
  <path d="M108 93 c0 -2.8 0.2 -3 2 -2 1.1 0.6 2 2 2 3 0 1.3 -0.7 2 -2 2 -1.6 0 -2 -0.7 -2 -3z"/>
  <path d="M172 93.1 l0 -2.8 3.5 1.6 c4.5 2.1 4.5 4.1 0 4.1 -3.2 0 -3.5 -0.3 -3.5 -2.9z"/>
  <path d="M137 93.6 c0 -0.7 5.8 -6.6 6.4 -6.6 0.3 0 0.6 1.6 0.6 3.5 0 3.3 -0.2 3.5 -3.5 3.5 -1.9 0 -3.5 -0.2 -3.5 -0.4z"/>
  <path d="M119.6 90.8 c-1 -3.8 -0.7 -4.8 1.4 -4.8 1.6 0 2 0.7 2 3.5 0 4 -2.4 4.9 -3.4 1.3z"/>
  <path d="M160.6 88.8 c-1 -3.8 -0.7 -4.8 1.4 -4.8 1.6 0 2 0.7 2 3.5 0 4 -2.4 4.9 -3.4 1.3z"/>
  <path d="M214 86.8 c0 -3.6 0.4 -3.5 1.4 0.5 0.4 1.6 0.2 2.7 -0.4 2.7 -0.5 0 -1 -1.4 -1 -3.2z"/>
  <path d="M217 88.8 c0 -3 1.3 -5.8 2.6 -5.8 0.9 0 1.4 1.2 1.4 3.5 0 2.8 -0.4 3.5 -2 3.5 -1.1 0 -2 -0.6 -2 -1.2z"/>
  <path d="M127 85.5 c0 -4 2.4 -4.9 3.4 -1.2 1 3.7 0.7 4.7 -1.4 4.7 -1.6 0 -2 -0.7 -2 -3.5z"/>
  <path d="M205.6 87.1 c-0.3 -0.4 -1 -2 -1.5 -3.5 -1 -2.4 -0.8 -2.6 1.4 -2.6 2.2 0 2.5 0.4 2.5 3.5 0 3.3 -1.2 4.6 -2.4 2.6z"/>
  <path d="M80 79.5 c0 -2.4 0.1 -2.5 3.2 -1.2 4.6 1.9 4.8 3.7 0.4 3.7 -3.2 0 -3.6 -0.3 -3.6 -2.5z"/>
  <path d="M190 78.5 c0 -4 2.4 -4.9 3.4 -1.2 1 3.7 0.7 4.7 -1.4 4.7 -1.6 0 -2 -0.7 -2 -3.5z"/>
  <path d="M202.6 79.1 c-0.3 -0.4 -1 -2 -1.5 -3.5 -1 -2.4 -0.8 -2.6 1.4 -2.6 2.2 0 2.5 0.4 2.5 3.5 0 3.3 -1.2 4.6 -2.4 2.6z"/>
  <path d="M170 74.5 c0 -3.3 0.2 -3.5 3.5 -3.5 1.9 0 3.5 0.2 3.5 0.4 0 0.6 -6 6.6 -6.6 6.6 -0.2 0 -0.4 -1.6 -0.4 -3.5z"/>
  <path d="M120 75.4 c0 -2.2 2.9 -6.8 5.1 -8.2 1.7 -1.1 1.9 -0.9 1.9 1.8 0 2 -0.5 3 -1.5 3 -0.9 0 -1.5 0.9 -1.5 2.5 0 1.8 -0.5 2.5 -2 2.5 -1.2 0 -2 -0.7 -2 -1.6z"/>
  <path d="M229 73.6 c0 -3.2 0.3 -3.6 2.5 -3.6 2.4 0 2.5 0.1 1.2 3.2 -1.9 4.6 -3.7 4.8 -3.7 0.4z"/>
  <path d="M186.3 72.5 c-1.6 -1.7 -1.7 -5.5 -0.3 -5.5 1.4 0 6 4.6 6 6 0 1.5 -4.3 1.2 -5.7 -0.5z"/>
  <path d="M222 71.8 c0 -3 1.3 -5.8 2.6 -5.8 0.9 0 1.4 1.2 1.4 3.5 0 2.8 -0.4 3.5 -2 3.5 -1.1 0 -2 -0.6 -2 -1.2z"/>
  <path d="M170 67.6 c0 -1.3 2.8 -2.6 5.8 -2.6 0.6 0 1.2 0.9 1.2 2 0 1.6 -0.7 2 -3.5 2 -2.3 0 -3.5 -0.5 -3.5 -1.4z"/>
  <path d="M149 57.5 c0 -1.1 -1.1 -1.5 -4 -1.5 -3.3 0 -4 -0.3 -4 -2 0 -1.8 0.7 -2 5.4 -2 6 0 7 0.7 6 4.5 -0.7 2.7 -3.4 3.5 -3.4 1z"/>
  <path d="M54 54.5 c0 -2.7 0.1 -2.8 2.4 -1.9 2.4 0.9 2 4.4 -0.4 4.4 -1.5 0 -2 -0.7 -2 -2.5z"/>
 </g>
 <g fill="#e6e6e6">
  <path d="M39.7 115.3 c-1.6 -1.5 -0.6 -3.3 1.8 -3.3 1.8 0 2.5 0.5 2.5 2 0 2 -2.8 2.8 -4.3 1.3z"/>
  <path d="M50 112.7 c0 -1.2 0.9 -2.9 2 -3.7 1.1 -0.8 2 -2.5 2 -3.7 0 -1.6 0.6 -2.3 2 -2.3 1.1 0 2 0.7 2 1.5 0 2.9 -2.8 8.3 -4.8 9.4 -2.9 1.5 -3.2 1.4 -3.2 -1.2z"/>
  <path d="M41 108.6 c0 -0.8 1.1 -1.7 2.5 -2 1.4 -0.4 2.5 -1.3 2.5 -2.1 0 -0.8 0.5 -1.5 1 -1.5 0.6 0 1 1.6 1 3.5 0 3.3 -0.2 3.5 -3.5 3.5 -2.3 0 -3.5 -0.5 -3.5 -1.4z"/>
  <path d="M101.6 99.4 c-2.2 -2.2 -2.1 -5.4 0.3 -5.4 2 0 3.1 1.8 3.1 5.1 0 2.3 -1.3 2.4 -3.4 0.3z"/>
  <path d="M125.8 99.9 c-2.9 -1.6 -2.1 -2.9 1.7 -2.9 2.8 0 3.5 0.4 3.5 2 0 2.2 -2.4 2.6 -5.2 0.9z"/>
  <path d="M182 99 c0 -1.6 0.7 -2 3.5 -2 4 0 4.9 2.4 1.3 3.4 -3.8 1 -4.8 0.7 -4.8 -1.4z"/>
  <path d="M142.2 97.9 c-1.1 -1.6 -1.6 -1.8 -2.8 -0.9 -1.1 1 -1.4 0.9 -1.4 -0.4 0 -0.9 -0.4 -1.6 -1 -1.6 -2.1 0 -0.9 -2.8 1.4 -3.4 1.7 -0.4 2.6 -1.5 3.1 -3.6 0.9 -4.2 3.5 -3.9 3.5 0.4 0 1.9 -0.6 3.7 -1.2 3.9 -1 0.4 -1 0.6 0 0.6 1.3 0.1 1.8 7.1 0.4 7.1 -0.4 0 -1.3 -0.9 -2 -2.1z"/>
  <path d="M167.8 98.6 c-2.6 -2 -2.2 -2.6 1.7 -2.6 2.8 0 3.5 0.4 3.5 2 0 2.3 -2.6 2.6 -5.2 0.6z"/>
  <path d="M79 94.6 c0 -0.7 0.9 -1.6 2 -1.9 3.1 -0.8 2.4 -3.2 -1.5 -5 -4.4 -2.1 -4.5 -3.7 -0.2 -3.7 4.7 0 5.7 1.1 6.4 6.8 l0.6 5.2 -3.7 0 c-2.4 0 -3.6 -0.5 -3.6 -1.4z"/>
  <path d="M67 92.9 c0 -1.7 0.4 -2 2.3 -1.5 1.2 0.3 2.5 0.6 3 0.6 0.4 0 0.7 0.7 0.7 1.5 0 1 -1 1.5 -3 1.5 -2.4 0 -3 -0.4 -3 -2.1z"/>
  <path d="M106.3 94.3 c-2.1 -0.8 -1.6 -4.3 0.6 -4.3 2 0 5.1 2.5 5.1 4.1 0 0.9 -3.6 1.1 -5.7 0.2z"/>
  <path d="M222 91.5 c0 -1.9 0.5 -3.5 1 -3.5 0.6 0 1 -1.1 1 -2.5 0 -2 0.5 -2.5 2.5 -2.5 l2.5 0 -2.1 5.2 c-2.5 6.3 -2.8 6.8 -4 6.8 -0.5 0 -0.9 -1.6 -0.9 -3.5z"/>
  <path d="M128 89.5 c0 -2.4 0.5 -3.5 1.5 -3.5 0.8 0 1.5 0.7 1.5 1.5 0 0.8 0.9 2.4 2 3.5 l2 2 -3.5 0 c-3.3 0 -3.5 -0.2 -3.5 -3.5z"/>
  <path d="M207.6 92.1 c-0.3 -0.4 -1 -2 -1.5 -3.5 -1 -2.4 -0.8 -2.6 1.4 -2.6 2.2 0 2.5 0.4 2.5 3.5 0 3.3 -1.2 4.6 -2.4 2.6z"/>
  <path d="M211.6 88.9 c-0.3 -1.7 -0.6 -4.2 -0.6 -5.5 0 -1.3 -0.4 -2.4 -1 -2.4 -0.5 0 -1 -1.6 -1 -3.5 0 -1.9 -0.4 -3.5 -1 -3.5 -0.5 0 -1 -1.6 -1 -3.5 0 -5.8 2.5 -4.2 4.4 2.8 0.9 3.4 2.4 8.6 3.3 11.6 l1.5 5.5 1.3 -3 1.3 -2.9 0.1 3.8 c0.1 3.6 0 3.7 -3.3 3.7 -3 0 -3.4 -0.4 -4 -3.1z"/>
  <path d="M90 86.5 c0 -3.9 1.4 -4.6 3 -1.6 1.6 3.1 1.2 5.1 -1 5.1 -1.6 0 -2 -0.7 -2 -3.5z"/>
  <path d="M127 81.5 c0 -2.8 0.4 -3.5 2 -3.5 2.1 0 2.4 1 1.4 4.8 -1 3.6 -3.4 2.7 -3.4 -1.3z"/>
  <path d="M204.6 84.1 c-0.3 -0.4 -1 -2 -1.5 -3.5 -1 -2.4 -0.8 -2.6 1.4 -2.6 2.2 0 2.5 0.4 2.5 3.5 0 3.3 -1.2 4.6 -2.4 2.6z"/>
  <path d="M160.5 79.3 c0.8 -4.4 2.8 -8.4 4.9 -10.2 1.4 -1.2 1.6 -0.9 1.6 2.3 0 2 -0.4 3.6 -0.9 3.6 -0.5 0 -1.2 1.8 -1.6 4 -0.5 3.1 -1.1 4 -2.7 4 -1.8 0 -1.9 -0.4 -1.3 -3.7z"/>
  <path d="M190 79.5 c0 -4 2.4 -4.9 3.4 -1.2 1 3.7 0.7 4.7 -1.4 4.7 -1.6 0 -2 -0.7 -2 -3.5z"/>
  <path d="M68 80.1 c-4.5 -8.5 5.4 -17.1 16.9 -14.6 3.4 0.7 4.2 3.1 1.4 3.8 -1.4 0.4 -1.2 0.5 0.5 0.6 1.3 0.1 2.2 -0.5 2.2 -1.4 0 -1.7 2.6 -2 3.5 -0.4 0.4 0.5 0.1 2.4 -0.5 4 -0.9 2.2 -1.7 2.8 -2.9 2.3 -0.9 -0.3 -3.7 -0.9 -6.3 -1.1 -3.7 -0.4 -4.8 -1 -4.8 -2.3 0 -1.5 -0.4 -1.6 -3.5 -0.6 -3.4 1.1 -3.5 1.2 -3.5 6.3 0 5.5 -1.2 6.8 -3 3.4z"/>
  <path d="M141.3 78.5 c-1.1 -3.3 -1 -3.5 1.3 -3.5 2.1 0 2.4 0.5 2.4 3.5 0 2.2 -0.5 3.5 -1.3 3.5 -0.8 0 -1.8 -1.6 -2.4 -3.5z"/>
  <path d="M180 80.5 c0 -0.8 0.7 -1.5 1.5 -1.5 0.8 0 1.5 -0.9 1.5 -2 0 -1.3 0.7 -2 2 -2 1.6 0 2 0.7 2 3.5 0 3.3 -0.2 3.5 -3.5 3.5 -2.4 0 -3.5 -0.5 -3.5 -1.5z"/>
  <path d="M227 78.6 c0 -3.2 0.3 -3.6 2.5 -3.6 2.4 0 2.5 0.1 1.2 3.2 -1.9 4.6 -3.7 4.8 -3.7 0.4z"/>
  <path d="M119 79.9 c0 -2.8 2.5 -9 4.2 -10.5 1.7 -1.6 1.8 -1.5 1.8 1.9 0 2.1 -0.4 3.7 -1 3.7 -0.5 0 -1 1.4 -1 3 0 2.3 -0.4 3 -2 3 -1.1 0 -2 -0.5 -2 -1.1z"/>
  <path d="M220 79 c0 -0.6 0.8 -3.8 1.8 -7 1.2 -4.4 2.2 -6 3.5 -6 1 0 1.7 0.8 1.7 2 0 1.1 -0.4 2 -1 2 -0.5 0 -1 1.2 -1 2.8 0 4.7 -1.1 7.2 -3.1 7.2 -1.1 0 -1.9 -0.5 -1.9 -1z"/>
  <path d="M171 73.7 c0 -3.6 0.1 -3.7 3.5 -3.7 2.4 0 3.5 0.5 3.5 1.5 0 0.8 -0.7 1.5 -1.5 1.5 -0.8 0 -2.3 1 -3.5 2.2 l-2 2.2 0 -3.7z"/>
  <path d="M230 70.6 c0 -3.2 0.3 -3.6 2.5 -3.6 2.4 0 2.5 0.1 1.2 3.2 -1.9 4.6 -3.7 4.8 -3.7 0.4z"/>
  <path d="M138 71.6 c0 -0.8 -1.6 -1.6 -4 -2 -3.2 -0.5 -4 -1 -4 -2.7 0 -1.9 0.4 -2.1 3.2 -1.5 1.8 0.3 4.2 1.6 5.5 2.8 l2.3 2.1 0 -2.6 c0 -2 0.5 -2.7 2 -2.7 1.7 0 2 0.7 2 4 0 3.9 -0.1 4 -3.5 4 -2.3 0 -3.5 -0.5 -3.5 -1.4z"/>
  <path d="M186 70 c0 -2.7 0.2 -2.9 1.9 -1.9 1 0.7 2.3 2 3 3 1 1.7 0.8 1.9 -1.9 1.9 -2.7 0 -3 -0.3 -3 -3z"/>
  <path d="M199 70.1 c-1.5 -2.9 -1.2 -4.1 1 -4.1 1.6 0 2 0.7 2 3 0 3.4 -1.4 3.9 -3 1.1z"/>
  <path d="M46 68 c0 -1.3 0.7 -2 2 -2 1.3 0 2 0.7 2 2 0 1.3 -0.7 2 -2 2 -1.3 0 -2 -0.7 -2 -2z"/>
  <path d="M177 67 c0 -2.1 1 -2.4 4.8 -1.4 3.6 1 2.7 3.4 -1.3 3.4 -2.8 0 -3.5 -0.4 -3.5 -2z"/>
  <path d="M47.2 59.8 c-1.5 -1.5 -1.5 -5.1 0 -6.6 2.1 -2.1 2.8 -1.3 2.8 3.3 0 4.6 -0.7 5.4 -2.8 3.3z"/>
 </g>
 <g fill="#efefef">
  <path d="M40.3 115.3 c-0.7 -0.2 -1.3 -2.2 -1.3 -4.3 0 -3.6 0.2 -3.9 3.3 -4.2 l3.2 -0.3 0.5 -20 0.5 -20 5.8 -0.3 5.8 -0.3 -0.3 21.3 c-0.3 23.4 -0.6 24.5 -6.4 27.3 -3.1 1.5 -8.6 1.9 -11.1 0.8z"/>
  <path d="M70 100.1 c-2.1 -0.6 -2.5 -1.4 -2.8 -5 -0.3 -3.9 -0.1 -4.3 1.5 -3.6 1 0.4 4.6 0.9 8.1 1.2 5.8 0.5 6.2 0.4 6.2 -1.6 0 -1.6 -1.4 -2.7 -6.2 -4.9 -7.8 -3.5 -9.3 -5.3 -9.3 -10.9 0 -3.5 0.5 -4.9 2.3 -6.4 3.9 -3.1 9.9 -4.2 16.1 -3 6.8 1.4 7.4 1.9 6.1 5.7 l-1.1 3.1 -4.7 -1.2 c-9.8 -2.5 -11.2 1.2 -1.9 5.4 7.3 3.3 8.7 4.8 9.3 9.8 1 7.8 -4.7 12.4 -15.1 12.2 -3.3 -0.1 -7.1 -0.4 -8.5 -0.8z"/>
  <path d="M101.4 98.5 c-3.5 -5.3 2.7 -10.6 8.1 -7.1 2.7 1.8 3.4 6.3 1.3 8.4 -2.2 2.2 -7.6 1.5 -9.4 -1.3z"/>
  <path d="M126.1 99.7 c-3.6 -1.8 -6.2 -6.9 -6.8 -13.5 -0.7 -7.2 1 -13.4 4.6 -17.5 3.6 -4 9.3 -4.4 14 -0.9 1.7 1.2 3.1 2.2 3.3 2.2 0.2 0 0.1 -3.8 -0.1 -8.5 l-0.3 -8.5 5.6 0 5.6 0 0 24 0 24 -4 0 c-3.1 0 -4.2 -0.5 -5.1 -2.2 -0.6 -1.3 -1.3 -2.5 -1.5 -2.7 -0.2 -0.2 -1.7 0.8 -3.4 2.3 -3.5 2.9 -7.9 3.4 -11.9 1.3z m14.9 -9.6 c0.5 -1.1 1 -4.2 1 -7 0 -7.9 -5.3 -11.8 -9.6 -7 -2.2 2.5 -2.6 11.8 -0.5 14.3 1.9 2.3 7.8 2.1 9.1 -0.3z"/>
  <path d="M169 98.8 c-6 -3.1 -8.5 -7.6 -8.5 -15.3 0 -11.9 6 -18.1 17.3 -17.9 9.7 0.1 14.6 4.7 15.8 14.7 l0.6 5.7 -11.1 0 c-10.1 0 -11.1 0.2 -11.1 1.8 0 3.3 3.3 5.2 8.8 5.2 2.8 0 6.2 -0.4 7.6 -1 2.5 -0.9 2.6 -0.8 2.6 3 0 3.7 -0.2 4 -3.7 4.9 -6.3 1.8 -13.4 1.3 -18.3 -1.1z m14.3 -21.5 c-1.1 -3.3 -2.5 -4.3 -5.9 -4.3 -2.3 0 -3.7 0.6 -4.4 1.9 -1.8 3.5 -1.2 4.1 5 4.1 5.2 0 5.9 -0.2 5.3 -1.7z"/>
  <path d="M209.9 98.3 c-6.2 -16.2 -11.9 -31.5 -11.9 -31.9 0 -0.3 2.6 -0.4 5.7 -0.2 l5.7 0.3 3.1 11.2 c1.7 6.2 3.3 11.4 3.6 11.7 0.3 0.3 2.1 -4.7 4 -11.2 l3.5 -11.7 5.7 -0.3 c3.1 -0.2 5.7 -0.2 5.7 0 0 0.2 -2.9 8 -6.4 17.3 l-6.5 17 -5.5 0.3 c-5.3 0.3 -5.7 0.2 -6.7 -2.5z"/>
  <path d="M46.9 58.9 c-1.9 -3.7 0.3 -6.9 4.9 -6.9 4.3 0 6.2 1.4 6.2 4.5 0 3.1 -1.9 4.5 -6.2 4.5 -2.8 0 -4 -0.5 -4.9 -2.1z"/>
 </g>
 <g fill="#f7f7f7">
  <path d="M101.9 99.3 c-1.2 -1.6 -1.2 -1.6 0.1 -0.6 0.8 0.6 2.9 1.3 4.5 1.6 l3 0.4 -3.1 0.2 c-2 0 -3.7 -0.6 -4.5 -1.6z"/>
  <path d="M52 60.3 c1.9 -0.3 4.2 -1 5 -1.6 1.3 -1 1.3 -1 0.1 0.6 -0.9 1.1 -2.6 1.6 -5 1.5 l-3.6 -0.1 3.5 -0.4z"/>
  <path d="M57.1 55.7 c-0.1 -1 -1.1 -2.2 -2.3 -2.7 -1.6 -0.6 -1.8 -0.9 -0.7 -0.9 2.1 -0.1 4.3 2.4 3.6 4.1 -0.3 0.8 -0.6 0.6 -0.6 -0.5z"/>
 </g>
 <g fill="#ffffff">
 </g>
</svg>